<svg width="1262" height="116" viewBox="0 0 1262 116" fill="none" xmlns="http://www.w3.org/2000/svg">
<path d="M91.286 60C90.902 60 90.582 59.872 90.326 59.616C90.1127 59.3173 90.006 58.976 90.006 58.592C90.006 58.464 90.0487 58.272 90.134 58.016L106.07 20.768H85.078C84.6513 20.768 84.2887 20.64 83.99 20.384C83.734 20.0853 83.606 19.7227 83.606 19.296V16.736C83.606 16.2667 83.734 15.904 83.99 15.648C84.2887 15.3493 84.6513 15.2 85.078 15.2H111.318C111.787 15.2 112.15 15.3493 112.406 15.648C112.705 15.904 112.854 16.2667 112.854 16.736V19.104C112.854 19.6587 112.811 20.1067 112.726 20.448C112.641 20.7893 112.513 21.1733 112.342 21.6L96.534 58.4C96.406 58.7413 96.1927 59.104 95.894 59.488C95.638 59.8293 95.254 60 94.742 60H91.286ZM133.251 60.64C129.88 60.64 127.021 60.064 124.675 58.912C122.371 57.7173 120.6 56.1813 119.363 54.304C118.168 52.4267 117.528 50.4427 117.443 48.352C117.4 47.968 117.507 47.6693 117.763 47.456C118.019 47.2427 118.339 47.136 118.723 47.136H122.179C122.563 47.136 122.904 47.2213 123.203 47.392C123.501 47.5627 123.736 47.9253 123.907 48.48C124.333 50.0587 125.016 51.36 125.955 52.384C126.936 53.3653 128.045 54.0907 129.283 54.56C130.563 54.9867 131.885 55.2 133.251 55.2C135.085 55.2 136.749 54.8373 138.243 54.112C139.779 53.344 140.995 52.2347 141.891 50.784C142.787 49.2907 143.235 47.4987 143.235 45.408C143.235 43.488 142.787 41.8453 141.891 40.48C141.037 39.072 139.843 38.0053 138.307 37.28C136.813 36.512 135.128 36.128 133.251 36.128C131.843 36.128 130.691 36.2987 129.795 36.64C128.899 36.9813 128.131 37.3867 127.491 37.856C126.893 38.3253 126.339 38.7307 125.827 39.072C125.357 39.4133 124.824 39.584 124.227 39.584H120.899C120.515 39.584 120.173 39.456 119.875 39.2C119.576 38.9013 119.448 38.56 119.491 38.176L121.539 16.8C121.581 16.288 121.731 15.904 121.987 15.648C122.285 15.3493 122.669 15.2 123.139 15.2H145.475C145.901 15.2 146.243 15.3493 146.499 15.648C146.797 15.904 146.947 16.2453 146.947 16.672V19.168C146.947 19.6373 146.797 20 146.499 20.256C146.243 20.512 145.901 20.64 145.475 20.64H127.043L125.827 33.248C126.424 32.864 127.384 32.416 128.707 31.904C130.029 31.3493 131.843 31.072 134.147 31.072C136.237 31.072 138.2 31.392 140.035 32.032C141.912 32.672 143.576 33.6107 145.027 34.848C146.477 36.0853 147.608 37.6 148.419 39.392C149.229 41.1413 149.635 43.168 149.635 45.472C149.635 48.7147 148.909 51.4667 147.458 53.728C146.051 55.9893 144.109 57.7173 141.635 58.912C139.203 60.064 136.408 60.64 133.251 60.64ZM172.851 60.64C169.907 60.64 167.411 60.192 165.363 59.296C163.357 58.3573 161.715 57.0773 160.435 55.456C159.155 53.8347 158.216 51.9787 157.619 49.888C157.064 47.7973 156.744 45.5787 156.659 43.232C156.616 42.08 156.573 40.864 156.531 39.584C156.531 38.304 156.531 37.024 156.531 35.744C156.573 34.4213 156.616 33.1627 156.659 31.968C156.701 29.6213 157.021 27.4027 157.619 25.312C158.259 23.1787 159.197 21.3227 160.435 19.744C161.715 18.1227 163.379 16.864 165.427 15.968C167.475 15.0293 169.949 14.56 172.851 14.56C175.795 14.56 178.269 15.0293 180.275 15.968C182.323 16.864 183.987 18.1227 185.267 19.744C186.547 21.3227 187.485 23.1787 188.083 25.312C188.723 27.4027 189.064 29.6213 189.107 31.968C189.149 33.1627 189.171 34.4213 189.171 35.744C189.213 37.024 189.213 38.304 189.171 39.584C189.171 40.864 189.149 42.08 189.107 43.232C189.064 45.5787 188.723 47.7973 188.083 49.888C187.485 51.9787 186.547 53.8347 185.267 55.456C184.029 57.0773 182.387 58.3573 180.339 59.296C178.333 60.192 175.837 60.64 172.851 60.64ZM172.851 55.2C176.179 55.2 178.632 54.112 180.211 51.936C181.832 49.7173 182.664 46.7093 182.707 42.912C182.792 41.6747 182.835 40.48 182.835 39.328C182.835 38.1333 182.835 36.96 182.835 35.808C182.835 34.6133 182.792 33.44 182.707 32.288C182.664 28.576 181.832 25.6107 180.211 23.392C178.632 21.1307 176.179 20 172.851 20C169.565 20 167.112 21.1307 165.491 23.392C163.912 25.6107 163.08 28.576 162.995 32.288C162.995 33.44 162.973 34.6133 162.931 35.808C162.931 36.96 162.931 38.1333 162.931 39.328C162.973 40.48 162.995 41.6747 162.995 42.912C163.08 46.7093 163.933 49.7173 165.555 51.936C167.176 54.112 169.608 55.2 172.851 55.2ZM211.94 57.888C211.513 57.888 211.15 57.76 210.852 57.504C210.596 57.2053 210.468 56.8427 210.468 56.416V43.104H197.348C196.921 43.104 196.558 42.976 196.26 42.72C196.004 42.4213 195.876 42.0587 195.876 41.632V39.584C195.876 39.1573 196.004 38.816 196.26 38.56C196.558 38.2613 196.921 38.112 197.348 38.112H210.468V25.184C210.468 24.7573 210.596 24.416 210.852 24.16C211.15 23.8613 211.513 23.712 211.94 23.712H214.18C214.606 23.712 214.948 23.8613 215.204 24.16C215.502 24.416 215.652 24.7573 215.652 25.184V38.112H228.836C229.262 38.112 229.604 38.2613 229.86 38.56C230.158 38.816 230.308 39.1573 230.308 39.584V41.632C230.308 42.0587 230.158 42.4213 229.86 42.72C229.604 42.976 229.262 43.104 228.836 43.104H215.652V56.416C215.652 56.8427 215.502 57.2053 215.204 57.504C214.948 57.76 214.606 57.888 214.18 57.888H211.94Z" fill="#333333"/>
<path d="M55.386 110.24C53.914 110.24 52.69 109.968 51.714 109.424C50.754 108.88 50.026 108.12 49.53 107.144C49.034 106.168 48.762 105.032 48.714 103.736C48.698 103.08 48.69 102.376 48.69 101.624C48.69 100.872 48.698 100.152 48.714 99.464C48.762 98.168 49.034 97.032 49.53 96.056C50.026 95.08 50.754 94.32 51.714 93.776C52.69 93.232 53.914 92.96 55.386 92.96C56.49 92.96 57.458 93.112 58.29 93.416C59.122 93.72 59.81 94.128 60.354 94.64C60.914 95.152 61.338 95.728 61.626 96.368C61.914 96.992 62.074 97.64 62.106 98.312C62.122 98.456 62.074 98.576 61.962 98.672C61.866 98.768 61.746 98.816 61.602 98.816H60.282C60.138 98.816 60.01 98.776 59.898 98.696C59.802 98.616 59.73 98.472 59.682 98.264C59.41 97.016 58.898 96.16 58.146 95.696C57.41 95.232 56.482 95 55.362 95C54.082 95 53.066 95.368 52.314 96.104C51.562 96.824 51.154 97.984 51.09 99.584C51.042 100.896 51.042 102.24 51.09 103.616C51.154 105.216 51.562 106.384 52.314 107.12C53.066 107.84 54.082 108.2 55.362 108.2C56.482 108.2 57.41 107.968 58.146 107.504C58.898 107.04 59.41 106.184 59.682 104.936C59.73 104.728 59.802 104.584 59.898 104.504C60.01 104.424 60.138 104.384 60.282 104.384H61.602C61.746 104.384 61.866 104.432 61.962 104.528C62.074 104.624 62.122 104.744 62.106 104.888C62.074 105.56 61.914 106.216 61.626 106.856C61.338 107.48 60.914 108.048 60.354 108.56C59.81 109.072 59.122 109.48 58.29 109.784C57.458 110.088 56.49 110.24 55.386 110.24ZM70.1224 110.24C68.9064 110.24 67.8904 110.008 67.0744 109.544C66.2584 109.08 65.6344 108.44 65.2024 107.624C64.7704 106.792 64.5304 105.848 64.4824 104.792C64.4664 104.52 64.4584 104.176 64.4584 103.76C64.4584 103.328 64.4664 102.984 64.4824 102.728C64.5304 101.656 64.7704 100.712 65.2024 99.896C65.6504 99.08 66.2824 98.44 67.0984 97.976C67.9144 97.512 68.9224 97.28 70.1224 97.28C71.3224 97.28 72.3304 97.512 73.1464 97.976C73.9624 98.44 74.5864 99.08 75.0184 99.896C75.4664 100.712 75.7144 101.656 75.7624 102.728C75.7784 102.984 75.7864 103.328 75.7864 103.76C75.7864 104.176 75.7784 104.52 75.7624 104.792C75.7144 105.848 75.4744 106.792 75.0424 107.624C74.6104 108.44 73.9864 109.08 73.1704 109.544C72.3544 110.008 71.3384 110.24 70.1224 110.24ZM70.1224 108.392C71.1144 108.392 71.9064 108.08 72.4984 107.456C73.0904 106.816 73.4104 105.888 73.4584 104.672C73.4744 104.432 73.4824 104.128 73.4824 103.76C73.4824 103.392 73.4744 103.088 73.4584 102.848C73.4104 101.632 73.0904 100.712 72.4984 100.088C71.9064 99.448 71.1144 99.128 70.1224 99.128C69.1304 99.128 68.3304 99.448 67.7224 100.088C67.1304 100.712 66.8184 101.632 66.7864 102.848C66.7704 103.088 66.7624 103.392 66.7624 103.76C66.7624 104.128 66.7704 104.432 66.7864 104.672C66.8184 105.888 67.1304 106.816 67.7224 107.456C68.3304 108.08 69.1304 108.392 70.1224 108.392ZM79.3436 110C79.1836 110 79.0476 109.952 78.9356 109.856C78.8396 109.744 78.7916 109.608 78.7916 109.448V98.072C78.7916 97.912 78.8396 97.784 78.9356 97.688C79.0476 97.576 79.1836 97.52 79.3436 97.52H80.4236C80.5836 97.52 80.7116 97.576 80.8076 97.688C80.9196 97.784 80.9756 97.912 80.9756 98.072V98.912C81.3436 98.416 81.8076 98.024 82.3676 97.736C82.9276 97.432 83.5996 97.28 84.3836 97.28C86.1916 97.264 87.4716 98 88.2236 99.488C88.5916 98.816 89.1276 98.28 89.8316 97.88C90.5356 97.48 91.3356 97.28 92.2316 97.28C93.0636 97.28 93.8156 97.472 94.4876 97.856C95.1756 98.24 95.7116 98.824 96.0956 99.608C96.4956 100.376 96.6956 101.344 96.6956 102.512V109.448C96.6956 109.608 96.6396 109.744 96.5276 109.856C96.4316 109.952 96.3036 110 96.1436 110H95.0156C94.8556 110 94.7196 109.952 94.6076 109.856C94.5116 109.744 94.4636 109.608 94.4636 109.448V102.728C94.4636 101.832 94.3356 101.128 94.0796 100.616C93.8236 100.104 93.4796 99.744 93.0476 99.536C92.6156 99.328 92.1436 99.224 91.6316 99.224C91.2156 99.224 90.7916 99.328 90.3596 99.536C89.9276 99.744 89.5676 100.104 89.2796 100.616C89.0076 101.128 88.8716 101.832 88.8716 102.728V109.448C88.8716 109.608 88.8156 109.744 88.7036 109.856C88.6076 109.952 88.4796 110 88.3196 110H87.1916C87.0316 110 86.8956 109.952 86.7836 109.856C86.6876 109.744 86.6396 109.608 86.6396 109.448V102.728C86.6396 101.832 86.5036 101.128 86.2316 100.616C85.9596 100.104 85.6076 99.744 85.1756 99.536C84.7436 99.328 84.2876 99.224 83.8076 99.224C83.3916 99.224 82.9676 99.328 82.5356 99.536C82.1036 99.744 81.7436 100.104 81.4556 100.616C81.1836 101.128 81.0476 101.824 81.0476 102.704V109.448C81.0476 109.608 80.9916 109.744 80.8796 109.856C80.7836 109.952 80.6556 110 80.4956 110H79.3436ZM100.696 114.56C100.536 114.56 100.4 114.504 100.288 114.392C100.192 114.296 100.144 114.168 100.144 114.008V98.072C100.144 97.912 100.192 97.784 100.288 97.688C100.4 97.576 100.536 97.52 100.696 97.52H101.8C101.96 97.52 102.088 97.576 102.184 97.688C102.296 97.784 102.352 97.912 102.352 98.072V99.128C102.736 98.6 103.248 98.16 103.888 97.808C104.528 97.456 105.328 97.28 106.288 97.28C107.184 97.28 107.944 97.432 108.568 97.736C109.208 98.04 109.728 98.456 110.128 98.984C110.544 99.512 110.856 100.112 111.064 100.784C111.272 101.456 111.384 102.176 111.4 102.944C111.416 103.2 111.424 103.472 111.424 103.76C111.424 104.048 111.416 104.32 111.4 104.576C111.384 105.328 111.272 106.048 111.064 106.736C110.856 107.408 110.544 108.008 110.128 108.536C109.728 109.048 109.208 109.464 108.568 109.784C107.944 110.088 107.184 110.24 106.288 110.24C105.36 110.24 104.576 110.072 103.936 109.736C103.312 109.384 102.8 108.952 102.4 108.44V114.008C102.4 114.168 102.352 114.296 102.256 114.392C102.16 114.504 102.024 114.56 101.848 114.56H100.696ZM105.784 108.296C106.616 108.296 107.264 108.12 107.728 107.768C108.208 107.4 108.552 106.928 108.76 106.352C108.968 105.76 109.088 105.128 109.12 104.456C109.136 103.992 109.136 103.528 109.12 103.064C109.088 102.392 108.968 101.768 108.76 101.192C108.552 100.6 108.208 100.128 107.728 99.776C107.264 99.408 106.616 99.224 105.784 99.224C105 99.224 104.36 99.408 103.864 99.776C103.384 100.144 103.024 100.616 102.784 101.192C102.56 101.752 102.432 102.328 102.4 102.92C102.384 103.176 102.376 103.48 102.376 103.832C102.376 104.184 102.384 104.496 102.4 104.768C102.416 105.328 102.544 105.88 102.784 106.424C103.04 106.968 103.416 107.416 103.912 107.768C104.408 108.12 105.032 108.296 105.784 108.296ZM114.993 110C114.833 110 114.697 109.952 114.585 109.856C114.489 109.744 114.441 109.608 114.441 109.448V93.512C114.441 93.352 114.489 93.224 114.585 93.128C114.697 93.016 114.833 92.96 114.993 92.96H116.121C116.297 92.96 116.433 93.016 116.529 93.128C116.625 93.224 116.673 93.352 116.673 93.512V109.448C116.673 109.608 116.625 109.744 116.529 109.856C116.433 109.952 116.297 110 116.121 110H114.993ZM125.221 110.24C123.573 110.24 122.261 109.736 121.285 108.728C120.309 107.704 119.773 106.312 119.677 104.552C119.661 104.344 119.653 104.08 119.653 103.76C119.653 103.424 119.661 103.152 119.677 102.944C119.741 101.808 120.005 100.816 120.469 99.968C120.933 99.104 121.565 98.44 122.365 97.976C123.181 97.512 124.133 97.28 125.221 97.28C126.437 97.28 127.453 97.536 128.269 98.048C129.101 98.56 129.733 99.288 130.165 100.232C130.597 101.176 130.813 102.28 130.813 103.544V103.952C130.813 104.128 130.757 104.264 130.645 104.36C130.549 104.456 130.421 104.504 130.261 104.504H121.957C121.957 104.52 121.957 104.552 121.957 104.6C121.957 104.648 121.957 104.688 121.957 104.72C121.989 105.376 122.133 105.992 122.389 106.568C122.645 107.128 123.013 107.584 123.493 107.936C123.973 108.288 124.549 108.464 125.221 108.464C125.797 108.464 126.277 108.376 126.661 108.2C127.045 108.024 127.357 107.832 127.597 107.624C127.837 107.4 127.997 107.232 128.077 107.12C128.221 106.912 128.333 106.792 128.413 106.76C128.493 106.712 128.621 106.688 128.797 106.688H129.949C130.109 106.688 130.237 106.736 130.333 106.832C130.445 106.912 130.493 107.032 130.477 107.192C130.461 107.432 130.333 107.728 130.093 108.08C129.853 108.416 129.509 108.752 129.061 109.088C128.613 109.424 128.069 109.704 127.429 109.928C126.789 110.136 126.053 110.24 125.221 110.24ZM121.957 102.848H128.533V102.776C128.533 102.056 128.397 101.416 128.125 100.856C127.869 100.296 127.493 99.856 126.997 99.536C126.501 99.2 125.909 99.032 125.221 99.032C124.533 99.032 123.941 99.2 123.445 99.536C122.965 99.856 122.597 100.296 122.341 100.856C122.085 101.416 121.957 102.056 121.957 102.776V102.848ZM138.484 110C137.588 110 136.86 109.832 136.3 109.496C135.74 109.144 135.332 108.656 135.076 108.032C134.82 107.392 134.692 106.64 134.692 105.776V99.44H132.82C132.66 99.44 132.524 99.392 132.412 99.296C132.316 99.184 132.268 99.048 132.268 98.888V98.072C132.268 97.912 132.316 97.784 132.412 97.688C132.524 97.576 132.66 97.52 132.82 97.52H134.692V93.512C134.692 93.352 134.74 93.224 134.836 93.128C134.948 93.016 135.084 92.96 135.244 92.96H136.372C136.532 92.96 136.66 93.016 136.756 93.128C136.868 93.224 136.924 93.352 136.924 93.512V97.52H139.9C140.06 97.52 140.188 97.576 140.284 97.688C140.396 97.784 140.452 97.912 140.452 98.072V98.888C140.452 99.048 140.396 99.184 140.284 99.296C140.188 99.392 140.06 99.44 139.9 99.44H136.924V105.608C136.924 106.36 137.052 106.952 137.308 107.384C137.564 107.816 138.02 108.032 138.676 108.032H140.14C140.3 108.032 140.428 108.088 140.524 108.2C140.636 108.296 140.692 108.424 140.692 108.584V109.448C140.692 109.608 140.636 109.744 140.524 109.856C140.428 109.952 140.3 110 140.14 110H138.484ZM147.955 110.24C146.307 110.24 144.995 109.736 144.019 108.728C143.043 107.704 142.507 106.312 142.411 104.552C142.395 104.344 142.387 104.08 142.387 103.76C142.387 103.424 142.395 103.152 142.411 102.944C142.475 101.808 142.739 100.816 143.203 99.968C143.667 99.104 144.299 98.44 145.099 97.976C145.915 97.512 146.867 97.28 147.955 97.28C149.171 97.28 150.187 97.536 151.003 98.048C151.835 98.56 152.467 99.288 152.899 100.232C153.331 101.176 153.547 102.28 153.547 103.544V103.952C153.547 104.128 153.491 104.264 153.379 104.36C153.283 104.456 153.155 104.504 152.995 104.504H144.691C144.691 104.52 144.691 104.552 144.691 104.6C144.691 104.648 144.691 104.688 144.691 104.72C144.723 105.376 144.867 105.992 145.123 106.568C145.379 107.128 145.747 107.584 146.227 107.936C146.707 108.288 147.283 108.464 147.955 108.464C148.531 108.464 149.011 108.376 149.395 108.2C149.779 108.024 150.091 107.832 150.331 107.624C150.571 107.4 150.731 107.232 150.811 107.12C150.955 106.912 151.067 106.792 151.147 106.76C151.227 106.712 151.355 106.688 151.531 106.688H152.683C152.843 106.688 152.971 106.736 153.067 106.832C153.179 106.912 153.227 107.032 153.211 107.192C153.195 107.432 153.067 107.728 152.827 108.08C152.587 108.416 152.243 108.752 151.795 109.088C151.347 109.424 150.803 109.704 150.163 109.928C149.523 110.136 148.787 110.24 147.955 110.24ZM144.691 102.848H151.267V102.776C151.267 102.056 151.131 101.416 150.859 100.856C150.603 100.296 150.227 99.856 149.731 99.536C149.235 99.2 148.643 99.032 147.955 99.032C147.267 99.032 146.675 99.2 146.179 99.536C145.699 99.856 145.331 100.296 145.075 100.856C144.819 101.416 144.691 102.056 144.691 102.776V102.848ZM160.977 110.24C160.097 110.24 159.337 110.088 158.697 109.784C158.057 109.464 157.529 109.04 157.113 108.512C156.713 107.968 156.409 107.352 156.201 106.664C156.009 105.976 155.897 105.248 155.865 104.48C155.849 104.224 155.841 103.984 155.841 103.76C155.841 103.536 155.849 103.296 155.865 103.04C155.897 102.288 156.009 101.568 156.201 100.88C156.409 100.192 156.713 99.576 157.113 99.032C157.529 98.488 158.057 98.064 158.697 97.76C159.337 97.44 160.097 97.28 160.977 97.28C161.921 97.28 162.705 97.448 163.329 97.784C163.953 98.12 164.465 98.536 164.865 99.032V93.512C164.865 93.352 164.913 93.224 165.009 93.128C165.121 93.016 165.257 92.96 165.417 92.96H166.569C166.729 92.96 166.857 93.016 166.953 93.128C167.065 93.224 167.121 93.352 167.121 93.512V109.448C167.121 109.608 167.065 109.744 166.953 109.856C166.857 109.952 166.729 110 166.569 110H165.489C165.313 110 165.177 109.952 165.081 109.856C164.985 109.744 164.937 109.608 164.937 109.448V108.44C164.537 108.952 164.017 109.384 163.377 109.736C162.737 110.072 161.937 110.24 160.977 110.24ZM161.481 108.296C162.281 108.296 162.921 108.112 163.401 107.744C163.881 107.376 164.241 106.912 164.481 106.352C164.721 105.776 164.849 105.192 164.865 104.6C164.881 104.344 164.889 104.04 164.889 103.688C164.889 103.32 164.881 103.008 164.865 102.752C164.849 102.192 164.713 101.64 164.457 101.096C164.217 100.552 163.849 100.104 163.353 99.752C162.873 99.4 162.249 99.224 161.481 99.224C160.665 99.224 160.017 99.408 159.537 99.776C159.057 100.128 158.713 100.6 158.505 101.192C158.297 101.768 158.177 102.392 158.145 103.064C158.129 103.528 158.129 103.992 158.145 104.456C158.177 105.128 158.297 105.76 158.505 106.352C158.713 106.928 159.057 107.4 159.537 107.768C160.017 108.12 160.665 108.296 161.481 108.296ZM177.437 110C177.261 110 177.125 109.952 177.029 109.856C176.933 109.744 176.885 109.608 176.885 109.448V93.776C176.885 93.6 176.933 93.464 177.029 93.368C177.125 93.256 177.261 93.2 177.437 93.2H183.533C184.717 93.2 185.741 93.392 186.605 93.776C187.485 94.16 188.165 94.736 188.645 95.504C189.125 96.256 189.365 97.2 189.365 98.336C189.365 99.472 189.125 100.416 188.645 101.168C188.165 101.92 187.485 102.488 186.605 102.872C185.741 103.256 184.717 103.448 183.533 103.448H179.285V109.448C179.285 109.608 179.229 109.744 179.117 109.856C179.021 109.952 178.885 110 178.709 110H177.437ZM179.261 101.432H183.413C184.597 101.432 185.485 101.168 186.077 100.64C186.669 100.112 186.965 99.344 186.965 98.336C186.965 97.344 186.677 96.576 186.101 96.032C185.525 95.488 184.629 95.216 183.413 95.216H179.261V101.432ZM192.523 110C192.363 110 192.227 109.952 192.115 109.856C192.019 109.744 191.971 109.608 191.971 109.448V98.096C191.971 97.936 192.019 97.8 192.115 97.688C192.227 97.576 192.363 97.52 192.523 97.52H193.627C193.787 97.52 193.923 97.576 194.035 97.688C194.147 97.8 194.203 97.936 194.203 98.096V99.152C194.523 98.608 194.963 98.2 195.523 97.928C196.083 97.656 196.755 97.52 197.539 97.52H198.499C198.659 97.52 198.787 97.576 198.883 97.688C198.979 97.784 199.027 97.912 199.027 98.072V99.056C199.027 99.216 198.979 99.344 198.883 99.44C198.787 99.536 198.659 99.584 198.499 99.584H197.059C196.195 99.584 195.515 99.84 195.019 100.352C194.523 100.848 194.275 101.528 194.275 102.392V109.448C194.275 109.608 194.219 109.744 194.107 109.856C193.995 109.952 193.859 110 193.699 110H192.523ZM205.966 110.24C204.75 110.24 203.734 110.008 202.918 109.544C202.102 109.08 201.478 108.44 201.046 107.624C200.614 106.792 200.374 105.848 200.326 104.792C200.31 104.52 200.302 104.176 200.302 103.76C200.302 103.328 200.31 102.984 200.326 102.728C200.374 101.656 200.614 100.712 201.046 99.896C201.494 99.08 202.126 98.44 202.942 97.976C203.758 97.512 204.766 97.28 205.966 97.28C207.166 97.28 208.174 97.512 208.99 97.976C209.806 98.44 210.43 99.08 210.862 99.896C211.31 100.712 211.558 101.656 211.606 102.728C211.622 102.984 211.63 103.328 211.63 103.76C211.63 104.176 211.622 104.52 211.606 104.792C211.558 105.848 211.318 106.792 210.886 107.624C210.454 108.44 209.83 109.08 209.014 109.544C208.198 110.008 207.182 110.24 205.966 110.24ZM205.966 108.392C206.958 108.392 207.75 108.08 208.342 107.456C208.934 106.816 209.254 105.888 209.302 104.672C209.318 104.432 209.326 104.128 209.326 103.76C209.326 103.392 209.318 103.088 209.302 102.848C209.254 101.632 208.934 100.712 208.342 100.088C207.75 99.448 206.958 99.128 205.966 99.128C204.974 99.128 204.174 99.448 203.566 100.088C202.974 100.712 202.662 101.632 202.63 102.848C202.614 103.088 202.606 103.392 202.606 103.76C202.606 104.128 202.614 104.432 202.63 104.672C202.662 105.888 202.974 106.816 203.566 107.456C204.174 108.08 204.974 108.392 205.966 108.392ZM212.595 114.56C212.435 114.56 212.307 114.504 212.211 114.392C212.099 114.296 212.043 114.168 212.043 114.008V113.192C212.043 113.032 212.099 112.896 212.211 112.784C212.307 112.688 212.435 112.64 212.595 112.64H212.931C213.507 112.64 213.931 112.528 214.203 112.304C214.475 112.096 214.651 111.816 214.731 111.464C214.827 111.112 214.875 110.712 214.875 110.264V98.072C214.875 97.912 214.923 97.784 215.019 97.688C215.131 97.576 215.267 97.52 215.427 97.52H216.603C216.763 97.52 216.891 97.576 216.987 97.688C217.099 97.784 217.155 97.912 217.155 98.072V110.288C217.155 111.136 217.019 111.88 216.747 112.52C216.491 113.16 216.067 113.656 215.475 114.008C214.883 114.376 214.075 114.56 213.051 114.56H212.595ZM215.235 95.192C215.075 95.192 214.939 95.144 214.827 95.048C214.731 94.936 214.683 94.8 214.683 94.64V93.344C214.683 93.184 214.731 93.056 214.827 92.96C214.939 92.848 215.075 92.792 215.235 92.792H216.771C216.931 92.792 217.067 92.848 217.179 92.96C217.291 93.056 217.347 93.184 217.347 93.344V94.64C217.347 94.8 217.291 94.936 217.179 95.048C217.067 95.144 216.931 95.192 216.771 95.192H215.235ZM225.744 110.24C224.096 110.24 222.784 109.736 221.808 108.728C220.832 107.704 220.296 106.312 220.2 104.552C220.184 104.344 220.176 104.08 220.176 103.76C220.176 103.424 220.184 103.152 220.2 102.944C220.264 101.808 220.528 100.816 220.992 99.968C221.456 99.104 222.088 98.44 222.888 97.976C223.704 97.512 224.656 97.28 225.744 97.28C226.96 97.28 227.976 97.536 228.792 98.048C229.624 98.56 230.256 99.288 230.688 100.232C231.12 101.176 231.336 102.28 231.336 103.544V103.952C231.336 104.128 231.28 104.264 231.168 104.36C231.072 104.456 230.944 104.504 230.784 104.504H222.48C222.48 104.52 222.48 104.552 222.48 104.6C222.48 104.648 222.48 104.688 222.48 104.72C222.512 105.376 222.656 105.992 222.912 106.568C223.168 107.128 223.536 107.584 224.016 107.936C224.496 108.288 225.072 108.464 225.744 108.464C226.32 108.464 226.8 108.376 227.184 108.2C227.568 108.024 227.88 107.832 228.12 107.624C228.36 107.4 228.52 107.232 228.6 107.12C228.744 106.912 228.856 106.792 228.936 106.76C229.016 106.712 229.144 106.688 229.32 106.688H230.472C230.632 106.688 230.76 106.736 230.856 106.832C230.968 106.912 231.016 107.032 231 107.192C230.984 107.432 230.856 107.728 230.616 108.08C230.376 108.416 230.032 108.752 229.584 109.088C229.136 109.424 228.592 109.704 227.952 109.928C227.312 110.136 226.576 110.24 225.744 110.24ZM222.48 102.848H229.056V102.776C229.056 102.056 228.92 101.416 228.648 100.856C228.392 100.296 228.016 99.856 227.52 99.536C227.024 99.2 226.432 99.032 225.744 99.032C225.056 99.032 224.464 99.2 223.968 99.536C223.488 99.856 223.12 100.296 222.864 100.856C222.608 101.416 222.48 102.056 222.48 102.776V102.848ZM239.246 110.24C238.11 110.24 237.126 110.024 236.294 109.592C235.478 109.144 234.846 108.512 234.398 107.696C233.95 106.864 233.71 105.872 233.678 104.72C233.662 104.48 233.654 104.16 233.654 103.76C233.654 103.36 233.662 103.04 233.678 102.8C233.71 101.648 233.95 100.664 234.398 99.848C234.846 99.016 235.478 98.384 236.294 97.952C237.126 97.504 238.11 97.28 239.246 97.28C240.174 97.28 240.966 97.408 241.622 97.664C242.294 97.92 242.846 98.248 243.278 98.648C243.71 99.048 244.03 99.48 244.238 99.944C244.462 100.408 244.582 100.848 244.598 101.264C244.614 101.424 244.566 101.552 244.454 101.648C244.342 101.744 244.206 101.792 244.046 101.792H242.894C242.734 101.792 242.614 101.76 242.534 101.696C242.454 101.616 242.374 101.488 242.294 101.312C242.006 100.528 241.614 99.976 241.118 99.656C240.622 99.336 240.006 99.176 239.27 99.176C238.31 99.176 237.526 99.472 236.918 100.064C236.326 100.656 236.006 101.608 235.958 102.92C235.942 103.496 235.942 104.056 235.958 104.6C236.006 105.928 236.326 106.888 236.918 107.48C237.526 108.056 238.31 108.344 239.27 108.344C240.006 108.344 240.622 108.184 241.118 107.864C241.614 107.544 242.006 106.992 242.294 106.208C242.374 106.032 242.454 105.912 242.534 105.848C242.614 105.768 242.734 105.728 242.894 105.728H244.046C244.206 105.728 244.342 105.776 244.454 105.872C244.566 105.968 244.614 106.096 244.598 106.256C244.582 106.592 244.51 106.936 244.382 107.288C244.254 107.64 244.046 108 243.758 108.368C243.486 108.72 243.142 109.04 242.726 109.328C242.31 109.6 241.806 109.824 241.214 110C240.638 110.16 239.982 110.24 239.246 110.24ZM252.32 110C251.424 110 250.696 109.832 250.136 109.496C249.576 109.144 249.168 108.656 248.912 108.032C248.656 107.392 248.528 106.64 248.528 105.776V99.44H246.656C246.496 99.44 246.36 99.392 246.248 99.296C246.152 99.184 246.104 99.048 246.104 98.888V98.072C246.104 97.912 246.152 97.784 246.248 97.688C246.36 97.576 246.496 97.52 246.656 97.52H248.528V93.512C248.528 93.352 248.576 93.224 248.672 93.128C248.784 93.016 248.92 92.96 249.08 92.96H250.208C250.368 92.96 250.496 93.016 250.592 93.128C250.704 93.224 250.76 93.352 250.76 93.512V97.52H253.736C253.896 97.52 254.024 97.576 254.12 97.688C254.232 97.784 254.288 97.912 254.288 98.072V98.888C254.288 99.048 254.232 99.184 254.12 99.296C254.024 99.392 253.896 99.44 253.736 99.44H250.76V105.608C250.76 106.36 250.888 106.952 251.144 107.384C251.4 107.816 251.856 108.032 252.512 108.032H253.976C254.136 108.032 254.264 108.088 254.36 108.2C254.472 108.296 254.528 108.424 254.528 108.584V109.448C254.528 109.608 254.472 109.744 254.36 109.856C254.264 109.952 254.136 110 253.976 110H252.32ZM261.143 110.24C260.247 110.24 259.479 110.128 258.839 109.904C258.199 109.68 257.679 109.408 257.279 109.088C256.879 108.768 256.575 108.448 256.367 108.128C256.175 107.808 256.071 107.552 256.055 107.36C256.039 107.184 256.095 107.048 256.223 106.952C256.351 106.856 256.479 106.808 256.607 106.808H257.663C257.759 106.808 257.831 106.824 257.879 106.856C257.943 106.872 258.023 106.936 258.119 107.048C258.327 107.272 258.559 107.496 258.815 107.72C259.071 107.944 259.383 108.128 259.751 108.272C260.135 108.416 260.607 108.488 261.167 108.488C261.983 108.488 262.655 108.336 263.183 108.032C263.711 107.712 263.975 107.248 263.975 106.64C263.975 106.24 263.863 105.92 263.639 105.68C263.431 105.44 263.047 105.224 262.487 105.032C261.943 104.84 261.191 104.64 260.231 104.432C259.271 104.208 258.511 103.936 257.951 103.616C257.391 103.28 256.991 102.888 256.751 102.44C256.511 101.976 256.391 101.456 256.391 100.88C256.391 100.288 256.567 99.72 256.919 99.176C257.271 98.616 257.783 98.16 258.455 97.808C259.143 97.456 259.999 97.28 261.023 97.28C261.855 97.28 262.567 97.384 263.159 97.592C263.751 97.8 264.239 98.064 264.623 98.384C265.007 98.688 265.295 98.992 265.487 99.296C265.679 99.6 265.783 99.856 265.799 100.064C265.815 100.224 265.767 100.36 265.655 100.472C265.543 100.568 265.415 100.616 265.271 100.616H264.263C264.151 100.616 264.055 100.592 263.975 100.544C263.911 100.496 263.847 100.44 263.783 100.376C263.623 100.168 263.431 99.96 263.207 99.752C262.999 99.544 262.719 99.376 262.367 99.248C262.031 99.104 261.583 99.032 261.023 99.032C260.223 99.032 259.623 99.2 259.223 99.536C258.823 99.872 258.623 100.296 258.623 100.808C258.623 101.112 258.711 101.384 258.887 101.624C259.063 101.864 259.399 102.08 259.895 102.272C260.391 102.464 261.127 102.672 262.103 102.896C263.159 103.104 263.991 103.384 264.599 103.736C265.207 104.088 265.639 104.496 265.895 104.96C266.151 105.424 266.279 105.96 266.279 106.568C266.279 107.24 266.079 107.856 265.679 108.416C265.295 108.976 264.719 109.424 263.951 109.76C263.199 110.08 262.263 110.24 261.143 110.24Z" fill="#333333"/>
<path d="M437.914 60C437.487 60 437.125 59.872 436.826 59.616C436.57 59.3173 436.442 58.9547 436.442 58.528V22.688L425.818 30.88C425.477 31.136 425.114 31.2427 424.73 31.2C424.346 31.1573 424.026 30.9653 423.77 30.624L422.106 28.512C421.85 28.128 421.743 27.744 421.786 27.36C421.871 26.976 422.085 26.656 422.426 26.4L436.378 15.648C436.677 15.4347 436.954 15.3067 437.21 15.264C437.466 15.2213 437.743 15.2 438.042 15.2H441.306C441.733 15.2 442.074 15.3493 442.33 15.648C442.586 15.904 442.714 16.2453 442.714 16.672V58.528C442.714 58.9547 442.586 59.3173 442.33 59.616C442.074 59.872 441.733 60 441.306 60H437.914ZM466.313 60.64C462.942 60.64 460.084 60.064 457.737 58.912C455.433 57.7173 453.662 56.1813 452.425 54.304C451.23 52.4267 450.59 50.4427 450.505 48.352C450.462 47.968 450.569 47.6693 450.825 47.456C451.081 47.2427 451.401 47.136 451.785 47.136H455.241C455.625 47.136 455.966 47.2213 456.265 47.392C456.564 47.5627 456.798 47.9253 456.969 48.48C457.396 50.0587 458.078 51.36 459.017 52.384C459.998 53.3653 461.108 54.0907 462.345 54.56C463.625 54.9867 464.948 55.2 466.313 55.2C468.148 55.2 469.812 54.8373 471.305 54.112C472.841 53.344 474.057 52.2347 474.953 50.784C475.849 49.2907 476.297 47.4987 476.297 45.408C476.297 43.488 475.849 41.8453 474.953 40.48C474.1 39.072 472.905 38.0053 471.369 37.28C469.876 36.512 468.19 36.128 466.313 36.128C464.905 36.128 463.753 36.2987 462.857 36.64C461.961 36.9813 461.193 37.3867 460.553 37.856C459.956 38.3253 459.401 38.7307 458.889 39.072C458.42 39.4133 457.886 39.584 457.289 39.584H453.961C453.577 39.584 453.236 39.456 452.937 39.2C452.638 38.9013 452.51 38.56 452.553 38.176L454.601 16.8C454.644 16.288 454.793 15.904 455.049 15.648C455.348 15.3493 455.732 15.2 456.201 15.2H478.537C478.964 15.2 479.305 15.3493 479.561 15.648C479.86 15.904 480.009 16.2453 480.009 16.672V19.168C480.009 19.6373 479.86 20 479.561 20.256C479.305 20.512 478.964 20.64 478.537 20.64H460.105L458.889 33.248C459.486 32.864 460.446 32.416 461.769 31.904C463.092 31.3493 464.905 31.072 467.209 31.072C469.3 31.072 471.262 31.392 473.097 32.032C474.974 32.672 476.638 33.6107 478.089 34.848C479.54 36.0853 480.67 37.6 481.481 39.392C482.292 41.1413 482.697 43.168 482.697 45.472C482.697 48.7147 481.972 51.4667 480.521 53.728C479.113 55.9893 477.172 57.7173 474.697 58.912C472.265 60.064 469.47 60.64 466.313 60.64ZM504.377 57.888C503.95 57.888 503.588 57.76 503.289 57.504C503.033 57.2053 502.905 56.8427 502.905 56.416V43.104H489.785C489.358 43.104 488.996 42.976 488.697 42.72C488.441 42.4213 488.313 42.0587 488.313 41.632V39.584C488.313 39.1573 488.441 38.816 488.697 38.56C488.996 38.2613 489.358 38.112 489.785 38.112H502.905V25.184C502.905 24.7573 503.033 24.416 503.289 24.16C503.588 23.8613 503.95 23.712 504.377 23.712H506.617C507.044 23.712 507.385 23.8613 507.641 24.16C507.94 24.416 508.089 24.7573 508.089 25.184V38.112H521.273C521.7 38.112 522.041 38.2613 522.297 38.56C522.596 38.816 522.745 39.1573 522.745 39.584V41.632C522.745 42.0587 522.596 42.4213 522.297 42.72C522.041 42.976 521.7 43.104 521.273 43.104H508.089V56.416C508.089 56.8427 507.94 57.2053 507.641 57.504C507.385 57.76 507.044 57.888 506.617 57.888H504.377Z" fill="#333333"/>
<path d="M382.862 110.24C381.502 110.24 380.334 110.008 379.358 109.544C378.382 109.064 377.63 108.336 377.102 107.36C376.574 106.368 376.278 105.128 376.214 103.64C376.198 102.936 376.19 102.264 376.19 101.624C376.19 100.968 376.198 100.288 376.214 99.584C376.278 98.112 376.582 96.888 377.126 95.912C377.686 94.92 378.454 94.184 379.43 93.704C380.422 93.208 381.566 92.96 382.862 92.96C384.174 92.96 385.318 93.208 386.294 93.704C387.286 94.184 388.062 94.92 388.622 95.912C389.182 96.888 389.486 98.112 389.534 99.584C389.566 100.288 389.582 100.968 389.582 101.624C389.582 102.264 389.566 102.936 389.534 103.64C389.486 105.128 389.19 106.368 388.646 107.36C388.118 108.336 387.366 109.064 386.39 109.544C385.414 110.008 384.238 110.24 382.862 110.24ZM382.862 108.2C384.094 108.2 385.094 107.832 385.862 107.096C386.646 106.36 387.07 105.168 387.134 103.52C387.166 102.8 387.182 102.16 387.182 101.6C387.182 101.024 387.166 100.384 387.134 99.68C387.102 98.576 386.894 97.68 386.51 96.992C386.142 96.304 385.646 95.8 385.022 95.48C384.398 95.16 383.678 95 382.862 95C382.078 95 381.374 95.16 380.75 95.48C380.126 95.8 379.622 96.304 379.238 96.992C378.87 97.68 378.662 98.576 378.614 99.68C378.598 100.384 378.59 101.024 378.59 101.6C378.59 102.16 378.598 102.8 378.614 103.52C378.678 105.168 379.102 106.36 379.886 107.096C380.67 107.832 381.662 108.2 382.862 108.2ZM393.32 110C393.16 110 393.024 109.952 392.912 109.856C392.816 109.744 392.768 109.608 392.768 109.448V98.072C392.768 97.912 392.816 97.784 392.912 97.688C393.024 97.576 393.16 97.52 393.32 97.52H394.448C394.608 97.52 394.736 97.576 394.832 97.688C394.944 97.784 395 97.912 395 98.072V99.128C395.416 98.584 395.936 98.144 396.56 97.808C397.2 97.456 398.016 97.28 399.008 97.28C400.048 97.28 400.928 97.512 401.648 97.976C402.384 98.424 402.936 99.056 403.304 99.872C403.672 100.672 403.856 101.608 403.856 102.68V109.448C403.856 109.608 403.808 109.744 403.712 109.856C403.616 109.952 403.488 110 403.328 110H402.128C401.968 110 401.832 109.952 401.72 109.856C401.624 109.744 401.576 109.608 401.576 109.448V102.8C401.576 101.68 401.304 100.808 400.76 100.184C400.216 99.544 399.416 99.224 398.36 99.224C397.368 99.224 396.568 99.544 395.96 100.184C395.368 100.808 395.072 101.68 395.072 102.8V109.448C395.072 109.608 395.016 109.744 394.904 109.856C394.808 109.952 394.68 110 394.52 110H393.32ZM418.318 115.28C417.23 115.28 416.334 115.136 415.63 114.848C414.942 114.56 414.398 114.208 413.998 113.792C413.614 113.392 413.334 112.984 413.158 112.568C412.998 112.168 412.91 111.848 412.894 111.608C412.878 111.448 412.926 111.312 413.038 111.2C413.166 111.088 413.302 111.032 413.446 111.032H414.598C414.742 111.032 414.862 111.064 414.958 111.128C415.054 111.192 415.134 111.328 415.198 111.536C415.294 111.776 415.438 112.04 415.63 112.328C415.822 112.632 416.118 112.888 416.518 113.096C416.918 113.32 417.478 113.432 418.198 113.432C418.95 113.432 419.582 113.328 420.094 113.12C420.606 112.928 420.99 112.576 421.246 112.064C421.518 111.568 421.654 110.88 421.654 110V108.368C421.27 108.864 420.766 109.28 420.142 109.616C419.518 109.936 418.734 110.096 417.79 110.096C416.894 110.096 416.126 109.944 415.486 109.64C414.846 109.32 414.318 108.896 413.902 108.368C413.502 107.824 413.198 107.208 412.99 106.52C412.798 105.832 412.686 105.112 412.654 104.36C412.638 103.912 412.638 103.472 412.654 103.04C412.686 102.288 412.798 101.568 412.99 100.88C413.198 100.192 413.502 99.576 413.902 99.032C414.318 98.488 414.846 98.064 415.486 97.76C416.126 97.44 416.894 97.28 417.79 97.28C418.75 97.28 419.542 97.464 420.166 97.832C420.806 98.184 421.326 98.616 421.726 99.128V98.096C421.726 97.936 421.774 97.8 421.87 97.688C421.982 97.576 422.118 97.52 422.278 97.52H423.382C423.542 97.52 423.678 97.576 423.79 97.688C423.902 97.8 423.958 97.936 423.958 98.096V109.736C423.958 110.808 423.774 111.76 423.406 112.592C423.054 113.424 422.462 114.08 421.63 114.56C420.814 115.04 419.71 115.28 418.318 115.28ZM418.27 108.176C419.07 108.176 419.71 107.992 420.19 107.624C420.686 107.256 421.046 106.792 421.27 106.232C421.51 105.672 421.638 105.104 421.654 104.528C421.67 104.304 421.678 104.032 421.678 103.712C421.678 103.376 421.67 103.096 421.654 102.872C421.638 102.296 421.51 101.728 421.27 101.168C421.046 100.608 420.686 100.144 420.19 99.776C419.71 99.408 419.07 99.224 418.27 99.224C417.47 99.224 416.83 99.408 416.35 99.776C415.87 100.128 415.526 100.6 415.318 101.192C415.11 101.768 414.99 102.392 414.958 103.064C414.942 103.48 414.942 103.904 414.958 104.336C414.99 105.008 415.11 105.64 415.318 106.232C415.526 106.808 415.87 107.28 416.35 107.648C416.83 108 417.47 108.176 418.27 108.176ZM432.638 110.24C431.422 110.24 430.406 110.008 429.59 109.544C428.774 109.08 428.15 108.44 427.718 107.624C427.286 106.792 427.046 105.848 426.998 104.792C426.982 104.52 426.974 104.176 426.974 103.76C426.974 103.328 426.982 102.984 426.998 102.728C427.046 101.656 427.286 100.712 427.718 99.896C428.166 99.08 428.798 98.44 429.614 97.976C430.43 97.512 431.438 97.28 432.638 97.28C433.838 97.28 434.846 97.512 435.662 97.976C436.478 98.44 437.102 99.08 437.534 99.896C437.982 100.712 438.23 101.656 438.278 102.728C438.294 102.984 438.302 103.328 438.302 103.76C438.302 104.176 438.294 104.52 438.278 104.792C438.23 105.848 437.99 106.792 437.558 107.624C437.126 108.44 436.502 109.08 435.686 109.544C434.87 110.008 433.854 110.24 432.638 110.24ZM432.638 108.392C433.63 108.392 434.422 108.08 435.014 107.456C435.606 106.816 435.926 105.888 435.974 104.672C435.99 104.432 435.998 104.128 435.998 103.76C435.998 103.392 435.99 103.088 435.974 102.848C435.926 101.632 435.606 100.712 435.014 100.088C434.422 99.448 433.63 99.128 432.638 99.128C431.646 99.128 430.846 99.448 430.238 100.088C429.646 100.712 429.334 101.632 429.302 102.848C429.286 103.088 429.278 103.392 429.278 103.76C429.278 104.128 429.286 104.432 429.302 104.672C429.334 105.888 429.646 106.816 430.238 107.456C430.846 108.08 431.646 108.392 432.638 108.392ZM441.859 110C441.699 110 441.563 109.952 441.451 109.856C441.355 109.744 441.307 109.608 441.307 109.448V98.072C441.307 97.912 441.355 97.784 441.451 97.688C441.563 97.576 441.699 97.52 441.859 97.52H443.011C443.171 97.52 443.299 97.576 443.395 97.688C443.491 97.784 443.539 97.912 443.539 98.072V109.448C443.539 109.608 443.491 109.744 443.395 109.856C443.299 109.952 443.171 110 443.011 110H441.859ZM441.667 95.192C441.507 95.192 441.371 95.144 441.259 95.048C441.163 94.936 441.115 94.8 441.115 94.64V93.344C441.115 93.184 441.163 93.056 441.259 92.96C441.371 92.848 441.507 92.792 441.667 92.792H443.179C443.339 92.792 443.467 92.848 443.563 92.96C443.675 93.056 443.731 93.184 443.731 93.344V94.64C443.731 94.8 443.675 94.936 443.563 95.048C443.467 95.144 443.339 95.192 443.179 95.192H441.667ZM447.906 110C447.746 110 447.61 109.952 447.498 109.856C447.402 109.744 447.354 109.608 447.354 109.448V98.072C447.354 97.912 447.402 97.784 447.498 97.688C447.61 97.576 447.746 97.52 447.906 97.52H449.034C449.194 97.52 449.322 97.576 449.418 97.688C449.53 97.784 449.586 97.912 449.586 98.072V99.128C450.002 98.584 450.522 98.144 451.146 97.808C451.786 97.456 452.602 97.28 453.594 97.28C454.634 97.28 455.514 97.512 456.234 97.976C456.97 98.424 457.522 99.056 457.89 99.872C458.258 100.672 458.442 101.608 458.442 102.68V109.448C458.442 109.608 458.394 109.744 458.298 109.856C458.202 109.952 458.074 110 457.914 110H456.714C456.554 110 456.418 109.952 456.306 109.856C456.21 109.744 456.162 109.608 456.162 109.448V102.8C456.162 101.68 455.89 100.808 455.346 100.184C454.802 99.544 454.002 99.224 452.946 99.224C451.954 99.224 451.154 99.544 450.546 100.184C449.954 100.808 449.658 101.68 449.658 102.8V109.448C449.658 109.608 449.602 109.744 449.49 109.856C449.394 109.952 449.266 110 449.106 110H447.906ZM467.021 115.28C465.933 115.28 465.037 115.136 464.333 114.848C463.645 114.56 463.101 114.208 462.701 113.792C462.317 113.392 462.037 112.984 461.861 112.568C461.701 112.168 461.613 111.848 461.597 111.608C461.581 111.448 461.629 111.312 461.741 111.2C461.869 111.088 462.005 111.032 462.149 111.032H463.301C463.445 111.032 463.565 111.064 463.661 111.128C463.757 111.192 463.837 111.328 463.901 111.536C463.997 111.776 464.141 112.04 464.333 112.328C464.525 112.632 464.821 112.888 465.221 113.096C465.621 113.32 466.181 113.432 466.901 113.432C467.653 113.432 468.285 113.328 468.797 113.12C469.309 112.928 469.693 112.576 469.949 112.064C470.221 111.568 470.357 110.88 470.357 110V108.368C469.973 108.864 469.469 109.28 468.845 109.616C468.221 109.936 467.437 110.096 466.493 110.096C465.597 110.096 464.829 109.944 464.189 109.64C463.549 109.32 463.021 108.896 462.605 108.368C462.205 107.824 461.901 107.208 461.693 106.52C461.501 105.832 461.389 105.112 461.357 104.36C461.341 103.912 461.341 103.472 461.357 103.04C461.389 102.288 461.501 101.568 461.693 100.88C461.901 100.192 462.205 99.576 462.605 99.032C463.021 98.488 463.549 98.064 464.189 97.76C464.829 97.44 465.597 97.28 466.493 97.28C467.453 97.28 468.245 97.464 468.869 97.832C469.509 98.184 470.029 98.616 470.429 99.128V98.096C470.429 97.936 470.477 97.8 470.573 97.688C470.685 97.576 470.821 97.52 470.981 97.52H472.085C472.245 97.52 472.381 97.576 472.493 97.688C472.605 97.8 472.661 97.936 472.661 98.096V109.736C472.661 110.808 472.477 111.76 472.109 112.592C471.757 113.424 471.165 114.08 470.333 114.56C469.517 115.04 468.413 115.28 467.021 115.28ZM466.973 108.176C467.773 108.176 468.413 107.992 468.893 107.624C469.389 107.256 469.749 106.792 469.973 106.232C470.213 105.672 470.341 105.104 470.357 104.528C470.373 104.304 470.381 104.032 470.381 103.712C470.381 103.376 470.373 103.096 470.357 102.872C470.341 102.296 470.213 101.728 469.973 101.168C469.749 100.608 469.389 100.144 468.893 99.776C468.413 99.408 467.773 99.224 466.973 99.224C466.173 99.224 465.533 99.408 465.053 99.776C464.573 100.128 464.229 100.6 464.021 101.192C463.813 101.768 463.693 102.392 463.661 103.064C463.645 103.48 463.645 103.904 463.661 104.336C463.693 105.008 463.813 105.64 464.021 106.232C464.229 106.808 464.573 107.28 465.053 107.648C465.533 108 466.173 108.176 466.973 108.176ZM482.688 114.56C482.528 114.56 482.392 114.504 482.28 114.392C482.184 114.296 482.136 114.168 482.136 114.008V98.072C482.136 97.912 482.184 97.784 482.28 97.688C482.392 97.576 482.528 97.52 482.688 97.52H483.792C483.952 97.52 484.08 97.576 484.176 97.688C484.288 97.784 484.344 97.912 484.344 98.072V99.128C484.728 98.6 485.24 98.16 485.88 97.808C486.52 97.456 487.32 97.28 488.28 97.28C489.176 97.28 489.936 97.432 490.56 97.736C491.2 98.04 491.72 98.456 492.12 98.984C492.536 99.512 492.848 100.112 493.056 100.784C493.264 101.456 493.376 102.176 493.392 102.944C493.408 103.2 493.416 103.472 493.416 103.76C493.416 104.048 493.408 104.32 493.392 104.576C493.376 105.328 493.264 106.048 493.056 106.736C492.848 107.408 492.536 108.008 492.12 108.536C491.72 109.048 491.2 109.464 490.56 109.784C489.936 110.088 489.176 110.24 488.28 110.24C487.352 110.24 486.568 110.072 485.928 109.736C485.304 109.384 484.792 108.952 484.392 108.44V114.008C484.392 114.168 484.344 114.296 484.248 114.392C484.152 114.504 484.016 114.56 483.84 114.56H482.688ZM487.776 108.296C488.608 108.296 489.256 108.12 489.72 107.768C490.2 107.4 490.544 106.928 490.752 106.352C490.96 105.76 491.08 105.128 491.112 104.456C491.128 103.992 491.128 103.528 491.112 103.064C491.08 102.392 490.96 101.768 490.752 101.192C490.544 100.6 490.2 100.128 489.72 99.776C489.256 99.408 488.608 99.224 487.776 99.224C486.992 99.224 486.352 99.408 485.856 99.776C485.376 100.144 485.016 100.616 484.776 101.192C484.552 101.752 484.424 102.328 484.392 102.92C484.376 103.176 484.368 103.48 484.368 103.832C484.368 104.184 484.376 104.496 484.392 104.768C484.408 105.328 484.536 105.88 484.776 106.424C485.032 106.968 485.408 107.416 485.904 107.768C486.4 108.12 487.024 108.296 487.776 108.296ZM496.961 110C496.801 110 496.665 109.952 496.553 109.856C496.457 109.744 496.409 109.608 496.409 109.448V98.096C496.409 97.936 496.457 97.8 496.553 97.688C496.665 97.576 496.801 97.52 496.961 97.52H498.065C498.225 97.52 498.361 97.576 498.473 97.688C498.585 97.8 498.641 97.936 498.641 98.096V99.152C498.961 98.608 499.401 98.2 499.961 97.928C500.521 97.656 501.193 97.52 501.977 97.52H502.937C503.097 97.52 503.225 97.576 503.321 97.688C503.417 97.784 503.465 97.912 503.465 98.072V99.056C503.465 99.216 503.417 99.344 503.321 99.44C503.225 99.536 503.097 99.584 502.937 99.584H501.497C500.633 99.584 499.953 99.84 499.457 100.352C498.961 100.848 498.713 101.528 498.713 102.392V109.448C498.713 109.608 498.657 109.744 498.545 109.856C498.433 109.952 498.297 110 498.137 110H496.961ZM510.404 110.24C509.188 110.24 508.172 110.008 507.356 109.544C506.54 109.08 505.916 108.44 505.484 107.624C505.052 106.792 504.812 105.848 504.764 104.792C504.748 104.52 504.74 104.176 504.74 103.76C504.74 103.328 504.748 102.984 504.764 102.728C504.812 101.656 505.052 100.712 505.484 99.896C505.932 99.08 506.564 98.44 507.38 97.976C508.196 97.512 509.204 97.28 510.404 97.28C511.604 97.28 512.612 97.512 513.428 97.976C514.244 98.44 514.868 99.08 515.3 99.896C515.748 100.712 515.996 101.656 516.044 102.728C516.06 102.984 516.068 103.328 516.068 103.76C516.068 104.176 516.06 104.52 516.044 104.792C515.996 105.848 515.756 106.792 515.324 107.624C514.892 108.44 514.268 109.08 513.452 109.544C512.636 110.008 511.62 110.24 510.404 110.24ZM510.404 108.392C511.396 108.392 512.188 108.08 512.78 107.456C513.372 106.816 513.692 105.888 513.74 104.672C513.756 104.432 513.764 104.128 513.764 103.76C513.764 103.392 513.756 103.088 513.74 102.848C513.692 101.632 513.372 100.712 512.78 100.088C512.188 99.448 511.396 99.128 510.404 99.128C509.412 99.128 508.612 99.448 508.004 100.088C507.412 100.712 507.1 101.632 507.068 102.848C507.052 103.088 507.044 103.392 507.044 103.76C507.044 104.128 507.052 104.432 507.068 104.672C507.1 105.888 507.412 106.816 508.004 107.456C508.612 108.08 509.412 108.392 510.404 108.392ZM517.033 114.56C516.873 114.56 516.745 114.504 516.649 114.392C516.537 114.296 516.481 114.168 516.481 114.008V113.192C516.481 113.032 516.537 112.896 516.649 112.784C516.745 112.688 516.873 112.64 517.033 112.64H517.369C517.945 112.64 518.369 112.528 518.641 112.304C518.913 112.096 519.089 111.816 519.169 111.464C519.265 111.112 519.313 110.712 519.313 110.264V98.072C519.313 97.912 519.361 97.784 519.457 97.688C519.569 97.576 519.705 97.52 519.865 97.52H521.041C521.201 97.52 521.329 97.576 521.425 97.688C521.537 97.784 521.593 97.912 521.593 98.072V110.288C521.593 111.136 521.457 111.88 521.185 112.52C520.929 113.16 520.505 113.656 519.913 114.008C519.321 114.376 518.513 114.56 517.489 114.56H517.033ZM519.673 95.192C519.513 95.192 519.377 95.144 519.265 95.048C519.169 94.936 519.121 94.8 519.121 94.64V93.344C519.121 93.184 519.169 93.056 519.265 92.96C519.377 92.848 519.513 92.792 519.673 92.792H521.209C521.369 92.792 521.505 92.848 521.617 92.96C521.729 93.056 521.785 93.184 521.785 93.344V94.64C521.785 94.8 521.729 94.936 521.617 95.048C521.505 95.144 521.369 95.192 521.209 95.192H519.673ZM530.182 110.24C528.534 110.24 527.222 109.736 526.246 108.728C525.27 107.704 524.734 106.312 524.638 104.552C524.622 104.344 524.614 104.08 524.614 103.76C524.614 103.424 524.622 103.152 524.638 102.944C524.702 101.808 524.966 100.816 525.43 99.968C525.894 99.104 526.526 98.44 527.326 97.976C528.142 97.512 529.094 97.28 530.182 97.28C531.398 97.28 532.414 97.536 533.23 98.048C534.062 98.56 534.694 99.288 535.126 100.232C535.558 101.176 535.773 102.28 535.773 103.544V103.952C535.773 104.128 535.718 104.264 535.606 104.36C535.51 104.456 535.382 104.504 535.222 104.504H526.918C526.918 104.52 526.918 104.552 526.918 104.6C526.918 104.648 526.918 104.688 526.918 104.72C526.95 105.376 527.094 105.992 527.35 106.568C527.606 107.128 527.974 107.584 528.454 107.936C528.934 108.288 529.51 108.464 530.182 108.464C530.758 108.464 531.238 108.376 531.622 108.2C532.006 108.024 532.318 107.832 532.558 107.624C532.798 107.4 532.958 107.232 533.038 107.12C533.182 106.912 533.294 106.792 533.374 106.76C533.454 106.712 533.582 106.688 533.758 106.688H534.91C535.07 106.688 535.198 106.736 535.294 106.832C535.406 106.912 535.454 107.032 535.438 107.192C535.422 107.432 535.294 107.728 535.054 108.08C534.814 108.416 534.47 108.752 534.022 109.088C533.574 109.424 533.03 109.704 532.39 109.928C531.75 110.136 531.014 110.24 530.182 110.24ZM526.918 102.848H533.494V102.776C533.494 102.056 533.358 101.416 533.086 100.856C532.83 100.296 532.454 99.856 531.958 99.536C531.462 99.2 530.87 99.032 530.182 99.032C529.494 99.032 528.902 99.2 528.406 99.536C527.926 99.856 527.558 100.296 527.302 100.856C527.046 101.416 526.918 102.056 526.918 102.776V102.848ZM543.683 110.24C542.547 110.24 541.563 110.024 540.731 109.592C539.915 109.144 539.283 108.512 538.835 107.696C538.387 106.864 538.147 105.872 538.115 104.72C538.099 104.48 538.091 104.16 538.091 103.76C538.091 103.36 538.099 103.04 538.115 102.8C538.147 101.648 538.387 100.664 538.835 99.848C539.283 99.016 539.915 98.384 540.731 97.952C541.563 97.504 542.547 97.28 543.683 97.28C544.611 97.28 545.403 97.408 546.059 97.664C546.731 97.92 547.283 98.248 547.715 98.648C548.147 99.048 548.467 99.48 548.675 99.944C548.899 100.408 549.019 100.848 549.035 101.264C549.051 101.424 549.003 101.552 548.891 101.648C548.779 101.744 548.643 101.792 548.483 101.792H547.331C547.171 101.792 547.051 101.76 546.971 101.696C546.891 101.616 546.811 101.488 546.731 101.312C546.443 100.528 546.051 99.976 545.555 99.656C545.059 99.336 544.443 99.176 543.707 99.176C542.747 99.176 541.963 99.472 541.355 100.064C540.763 100.656 540.443 101.608 540.395 102.92C540.379 103.496 540.379 104.056 540.395 104.6C540.443 105.928 540.763 106.888 541.355 107.48C541.963 108.056 542.747 108.344 543.707 108.344C544.443 108.344 545.059 108.184 545.555 107.864C546.051 107.544 546.443 106.992 546.731 106.208C546.811 106.032 546.891 105.912 546.971 105.848C547.051 105.768 547.171 105.728 547.331 105.728H548.483C548.643 105.728 548.779 105.776 548.891 105.872C549.003 105.968 549.051 106.096 549.035 106.256C549.019 106.592 548.947 106.936 548.819 107.288C548.691 107.64 548.483 108 548.195 108.368C547.923 108.72 547.579 109.04 547.163 109.328C546.747 109.6 546.243 109.824 545.651 110C545.075 110.16 544.419 110.24 543.683 110.24ZM556.757 110C555.861 110 555.133 109.832 554.573 109.496C554.013 109.144 553.605 108.656 553.349 108.032C553.093 107.392 552.965 106.64 552.965 105.776V99.44H551.093C550.933 99.44 550.797 99.392 550.685 99.296C550.589 99.184 550.541 99.048 550.541 98.888V98.072C550.541 97.912 550.589 97.784 550.685 97.688C550.797 97.576 550.933 97.52 551.093 97.52H552.965V93.512C552.965 93.352 553.013 93.224 553.109 93.128C553.221 93.016 553.357 92.96 553.517 92.96H554.645C554.805 92.96 554.933 93.016 555.029 93.128C555.141 93.224 555.197 93.352 555.197 93.512V97.52H558.173C558.333 97.52 558.461 97.576 558.557 97.688C558.669 97.784 558.725 97.912 558.725 98.072V98.888C558.725 99.048 558.669 99.184 558.557 99.296C558.461 99.392 558.333 99.44 558.173 99.44H555.197V105.608C555.197 106.36 555.325 106.952 555.581 107.384C555.837 107.816 556.293 108.032 556.949 108.032H558.413C558.573 108.032 558.701 108.088 558.797 108.2C558.909 108.296 558.965 108.424 558.965 108.584V109.448C558.965 109.608 558.909 109.744 558.797 109.856C558.701 109.952 558.573 110 558.413 110H556.757ZM565.58 110.24C564.684 110.24 563.916 110.128 563.276 109.904C562.636 109.68 562.116 109.408 561.716 109.088C561.316 108.768 561.012 108.448 560.804 108.128C560.612 107.808 560.508 107.552 560.492 107.36C560.476 107.184 560.532 107.048 560.66 106.952C560.788 106.856 560.916 106.808 561.044 106.808H562.1C562.196 106.808 562.268 106.824 562.316 106.856C562.38 106.872 562.46 106.936 562.556 107.048C562.764 107.272 562.996 107.496 563.252 107.72C563.508 107.944 563.82 108.128 564.188 108.272C564.572 108.416 565.044 108.488 565.604 108.488C566.42 108.488 567.092 108.336 567.62 108.032C568.148 107.712 568.412 107.248 568.412 106.64C568.412 106.24 568.3 105.92 568.076 105.68C567.868 105.44 567.484 105.224 566.924 105.032C566.38 104.84 565.628 104.64 564.668 104.432C563.708 104.208 562.948 103.936 562.388 103.616C561.828 103.28 561.428 102.888 561.188 102.44C560.948 101.976 560.828 101.456 560.828 100.88C560.828 100.288 561.004 99.72 561.356 99.176C561.708 98.616 562.22 98.16 562.892 97.808C563.58 97.456 564.436 97.28 565.46 97.28C566.292 97.28 567.004 97.384 567.596 97.592C568.188 97.8 568.676 98.064 569.06 98.384C569.444 98.688 569.732 98.992 569.924 99.296C570.116 99.6 570.22 99.856 570.236 100.064C570.252 100.224 570.204 100.36 570.092 100.472C569.98 100.568 569.852 100.616 569.708 100.616H568.7C568.588 100.616 568.492 100.592 568.412 100.544C568.348 100.496 568.284 100.44 568.22 100.376C568.06 100.168 567.868 99.96 567.644 99.752C567.436 99.544 567.156 99.376 566.804 99.248C566.468 99.104 566.02 99.032 565.46 99.032C564.66 99.032 564.06 99.2 563.66 99.536C563.26 99.872 563.06 100.296 563.06 100.808C563.06 101.112 563.148 101.384 563.324 101.624C563.5 101.864 563.836 102.08 564.332 102.272C564.828 102.464 565.564 102.672 566.54 102.896C567.596 103.104 568.428 103.384 569.036 103.736C569.644 104.088 570.076 104.496 570.332 104.96C570.588 105.424 570.716 105.96 570.716 106.568C570.716 107.24 570.516 107.856 570.116 108.416C569.732 108.976 569.156 109.424 568.388 109.76C567.636 110.08 566.7 110.24 565.58 110.24Z" fill="#333333"/>
<path d="M715.358 60C714.931 60 714.569 59.872 714.27 59.616C714.014 59.3173 713.886 58.9547 713.886 58.528V56.48C713.886 56.096 713.993 55.6693 714.206 55.2C714.419 54.7307 714.846 54.2187 715.486 53.664L729.054 40.096C731.23 38.2613 732.937 36.704 734.174 35.424C735.454 34.1013 736.35 32.8427 736.862 31.648C737.417 30.4533 737.694 29.216 737.694 27.936C737.694 25.504 737.011 23.584 735.646 22.176C734.281 20.7253 732.254 20 729.566 20C727.859 20 726.387 20.3627 725.15 21.088C723.913 21.7707 722.931 22.7307 722.206 23.968C721.523 25.1627 721.075 26.528 720.862 28.064C720.777 28.6187 720.542 29.0027 720.158 29.216C719.817 29.4293 719.497 29.536 719.198 29.536H715.87C715.486 29.536 715.166 29.4293 714.91 29.216C714.654 28.96 714.526 28.6613 714.526 28.32C714.569 26.6987 714.91 25.0773 715.55 23.456C716.19 21.792 717.129 20.2987 718.366 18.976C719.646 17.6533 721.203 16.5867 723.038 15.776C724.915 14.9227 727.091 14.496 729.566 14.496C732.937 14.496 735.689 15.1147 737.822 16.352C739.998 17.5467 741.598 19.1467 742.622 21.152C743.646 23.1573 744.158 25.3547 744.158 27.744C744.158 29.6213 743.838 31.3493 743.198 32.928C742.558 34.464 741.619 35.9787 740.382 37.472C739.187 38.9227 737.694 40.416 735.902 41.952L723.614 54.432H743.582C744.051 54.432 744.414 54.56 744.67 54.816C744.969 55.072 745.118 55.4347 745.118 55.904V58.528C745.118 58.9547 744.969 59.3173 744.67 59.616C744.414 59.872 744.051 60 743.582 60H715.358ZM767.001 60.64C763.63 60.64 760.771 60.064 758.425 58.912C756.121 57.7173 754.35 56.1813 753.113 54.304C751.918 52.4267 751.278 50.4427 751.193 48.352C751.15 47.968 751.257 47.6693 751.513 47.456C751.769 47.2427 752.089 47.136 752.473 47.136H755.929C756.313 47.136 756.654 47.2213 756.953 47.392C757.251 47.5627 757.486 47.9253 757.657 48.48C758.083 50.0587 758.766 51.36 759.705 52.384C760.686 53.3653 761.795 54.0907 763.033 54.56C764.313 54.9867 765.635 55.2 767.001 55.2C768.835 55.2 770.499 54.8373 771.993 54.112C773.529 53.344 774.745 52.2347 775.641 50.784C776.537 49.2907 776.985 47.4987 776.985 45.408C776.985 43.488 776.537 41.8453 775.641 40.48C774.787 39.072 773.593 38.0053 772.057 37.28C770.563 36.512 768.878 36.128 767.001 36.128C765.593 36.128 764.441 36.2987 763.545 36.64C762.649 36.9813 761.881 37.3867 761.241 37.856C760.643 38.3253 760.089 38.7307 759.577 39.072C759.107 39.4133 758.574 39.584 757.977 39.584H754.649C754.265 39.584 753.923 39.456 753.625 39.2C753.326 38.9013 753.198 38.56 753.241 38.176L755.289 16.8C755.331 16.288 755.481 15.904 755.737 15.648C756.035 15.3493 756.419 15.2 756.889 15.2H779.225C779.651 15.2 779.993 15.3493 780.249 15.648C780.547 15.904 780.697 16.2453 780.697 16.672V19.168C780.697 19.6373 780.547 20 780.249 20.256C779.993 20.512 779.651 20.64 779.225 20.64H760.793L759.577 33.248C760.174 32.864 761.134 32.416 762.457 31.904C763.779 31.3493 765.593 31.072 767.897 31.072C769.987 31.072 771.95 31.392 773.785 32.032C775.662 32.672 777.326 33.6107 778.777 34.848C780.227 36.0853 781.358 37.6 782.169 39.392C782.979 41.1413 783.385 43.168 783.385 45.472C783.385 48.7147 782.659 51.4667 781.208 53.728C779.801 55.9893 777.859 57.7173 775.385 58.912C772.953 60.064 770.158 60.64 767.001 60.64ZM806.601 60.64C803.657 60.64 801.161 60.192 799.113 59.296C797.107 58.3573 795.465 57.0773 794.185 55.456C792.905 53.8347 791.966 51.9787 791.369 49.888C790.814 47.7973 790.494 45.5787 790.409 43.232C790.366 42.08 790.323 40.864 790.281 39.584C790.281 38.304 790.281 37.024 790.281 35.744C790.323 34.4213 790.366 33.1627 790.409 31.968C790.451 29.6213 790.771 27.4027 791.369 25.312C792.009 23.1787 792.947 21.3227 794.185 19.744C795.465 18.1227 797.129 16.864 799.177 15.968C801.225 15.0293 803.699 14.56 806.601 14.56C809.545 14.56 812.019 15.0293 814.025 15.968C816.073 16.864 817.737 18.1227 819.017 19.744C820.297 21.3227 821.235 23.1787 821.833 25.312C822.473 27.4027 822.814 29.6213 822.857 31.968C822.899 33.1627 822.921 34.4213 822.921 35.744C822.963 37.024 822.963 38.304 822.921 39.584C822.921 40.864 822.899 42.08 822.857 43.232C822.814 45.5787 822.473 47.7973 821.833 49.888C821.235 51.9787 820.297 53.8347 819.017 55.456C817.779 57.0773 816.137 58.3573 814.089 59.296C812.083 60.192 809.587 60.64 806.601 60.64ZM806.601 55.2C809.929 55.2 812.382 54.112 813.961 51.936C815.582 49.7173 816.414 46.7093 816.457 42.912C816.542 41.6747 816.585 40.48 816.585 39.328C816.585 38.1333 816.585 36.96 816.585 35.808C816.585 34.6133 816.542 33.44 816.457 32.288C816.414 28.576 815.582 25.6107 813.961 23.392C812.382 21.1307 809.929 20 806.601 20C803.315 20 800.862 21.1307 799.241 23.392C797.662 25.6107 796.83 28.576 796.745 32.288C796.745 33.44 796.723 34.6133 796.681 35.808C796.681 36.96 796.681 38.1333 796.681 39.328C796.723 40.48 796.745 41.6747 796.745 42.912C796.83 46.7093 797.683 49.7173 799.305 51.936C800.926 54.112 803.358 55.2 806.601 55.2ZM845.69 57.888C845.263 57.888 844.9 57.76 844.602 57.504C844.346 57.2053 844.218 56.8427 844.218 56.416V43.104H831.098C830.671 43.104 830.308 42.976 830.01 42.72C829.754 42.4213 829.626 42.0587 829.626 41.632V39.584C829.626 39.1573 829.754 38.816 830.01 38.56C830.308 38.2613 830.671 38.112 831.098 38.112H844.218V25.184C844.218 24.7573 844.346 24.416 844.602 24.16C844.9 23.8613 845.263 23.712 845.69 23.712H847.93C848.356 23.712 848.698 23.8613 848.954 24.16C849.252 24.416 849.402 24.7573 849.402 25.184V38.112H862.586C863.012 38.112 863.354 38.2613 863.61 38.56C863.908 38.816 864.058 39.1573 864.058 39.584V41.632C864.058 42.0587 863.908 42.4213 863.61 42.72C863.354 42.976 863.012 43.104 862.586 43.104H849.402V56.416C849.402 56.8427 849.252 57.2053 848.954 57.504C848.698 57.76 848.356 57.888 847.93 57.888H845.69Z" fill="#333333"/>
<path d="M747.71 110C747.582 110 747.47 109.952 747.374 109.856C747.278 109.76 747.23 109.648 747.23 109.52C747.23 109.44 747.238 109.352 747.254 109.256L753.206 93.728C753.27 93.568 753.358 93.44 753.47 93.344C753.582 93.248 753.75 93.2 753.974 93.2H755.606C755.814 93.2 755.974 93.248 756.086 93.344C756.214 93.44 756.31 93.568 756.374 93.728L762.302 109.256C762.334 109.352 762.35 109.44 762.35 109.52C762.35 109.648 762.302 109.76 762.206 109.856C762.11 109.952 761.998 110 761.87 110H760.646C760.454 110 760.31 109.952 760.214 109.856C760.134 109.76 760.078 109.672 760.046 109.592L758.726 106.184H750.854L749.534 109.592C749.518 109.672 749.462 109.76 749.366 109.856C749.27 109.952 749.126 110 748.934 110H747.71ZM751.55 104.12H758.03L754.79 95.6L751.55 104.12ZM767.447 110C767.239 110 767.079 109.952 766.967 109.856C766.855 109.744 766.759 109.592 766.679 109.4L763.271 98.264C763.239 98.184 763.223 98.104 763.223 98.024C763.223 97.88 763.271 97.76 763.367 97.664C763.479 97.568 763.599 97.52 763.727 97.52H764.783C764.959 97.52 765.095 97.568 765.191 97.664C765.287 97.76 765.351 97.848 765.383 97.928L768.047 106.976L770.903 98.024C770.935 97.912 770.999 97.8 771.095 97.688C771.207 97.576 771.367 97.52 771.575 97.52H772.391C772.599 97.52 772.759 97.576 772.871 97.688C772.983 97.8 773.047 97.912 773.063 98.024L775.919 106.976L778.583 97.928C778.599 97.848 778.655 97.76 778.751 97.664C778.847 97.568 778.983 97.52 779.159 97.52H780.215C780.359 97.52 780.479 97.568 780.575 97.664C780.671 97.76 780.719 97.88 780.719 98.024C780.719 98.104 780.703 98.184 780.671 98.264L777.263 109.4C777.215 109.592 777.127 109.744 776.999 109.856C776.887 109.952 776.719 110 776.495 110H775.559C775.351 110 775.175 109.952 775.031 109.856C774.903 109.744 774.815 109.592 774.767 109.4L771.983 100.808L769.199 109.4C769.135 109.592 769.039 109.744 768.911 109.856C768.783 109.952 768.607 110 768.383 110H767.447ZM786.506 110.24C785.706 110.24 784.978 110.08 784.322 109.76C783.666 109.44 783.138 109.008 782.738 108.464C782.338 107.92 782.138 107.304 782.138 106.616C782.138 105.512 782.586 104.632 783.482 103.976C784.378 103.32 785.546 102.888 786.986 102.68L790.562 102.176V101.48C790.562 100.712 790.338 100.112 789.89 99.68C789.458 99.248 788.746 99.032 787.754 99.032C787.034 99.032 786.45 99.176 786.002 99.464C785.57 99.752 785.266 100.12 785.09 100.568C784.994 100.808 784.826 100.928 784.586 100.928H783.506C783.33 100.928 783.194 100.88 783.098 100.784C783.018 100.672 782.978 100.544 782.978 100.4C782.978 100.16 783.066 99.864 783.242 99.512C783.434 99.16 783.722 98.816 784.106 98.48C784.49 98.144 784.978 97.864 785.57 97.64C786.178 97.4 786.914 97.28 787.778 97.28C788.738 97.28 789.546 97.408 790.202 97.664C790.858 97.904 791.37 98.232 791.738 98.648C792.122 99.064 792.394 99.536 792.554 100.064C792.73 100.592 792.818 101.128 792.818 101.672V109.448C792.818 109.608 792.762 109.744 792.65 109.856C792.554 109.952 792.426 110 792.266 110H791.162C790.986 110 790.85 109.952 790.754 109.856C790.658 109.744 790.61 109.608 790.61 109.448V108.416C790.402 108.704 790.122 108.992 789.77 109.28C789.418 109.552 788.978 109.784 788.45 109.976C787.922 110.152 787.274 110.24 786.506 110.24ZM787.01 108.44C787.666 108.44 788.266 108.304 788.81 108.032C789.354 107.744 789.778 107.304 790.082 106.712C790.402 106.12 790.562 105.376 790.562 104.48V103.808L787.778 104.216C786.642 104.376 785.786 104.648 785.21 105.032C784.634 105.4 784.346 105.872 784.346 106.448C784.346 106.896 784.474 107.272 784.73 107.576C785.002 107.864 785.338 108.08 785.738 108.224C786.154 108.368 786.578 108.44 787.01 108.44ZM796.82 110C796.66 110 796.524 109.952 796.412 109.856C796.316 109.744 796.268 109.608 796.268 109.448V98.096C796.268 97.936 796.316 97.8 796.412 97.688C796.524 97.576 796.66 97.52 796.82 97.52H797.924C798.084 97.52 798.22 97.576 798.332 97.688C798.444 97.8 798.5 97.936 798.5 98.096V99.152C798.82 98.608 799.26 98.2 799.82 97.928C800.38 97.656 801.052 97.52 801.836 97.52H802.796C802.956 97.52 803.084 97.576 803.18 97.688C803.276 97.784 803.324 97.912 803.324 98.072V99.056C803.324 99.216 803.276 99.344 803.18 99.44C803.084 99.536 802.956 99.584 802.796 99.584H801.356C800.492 99.584 799.812 99.84 799.316 100.352C798.82 100.848 798.572 101.528 798.572 102.392V109.448C798.572 109.608 798.516 109.744 798.404 109.856C798.292 109.952 798.156 110 797.996 110H796.82ZM809.688 110.24C808.808 110.24 808.048 110.088 807.408 109.784C806.768 109.464 806.24 109.04 805.824 108.512C805.424 107.968 805.12 107.352 804.912 106.664C804.72 105.976 804.608 105.248 804.576 104.48C804.56 104.224 804.552 103.984 804.552 103.76C804.552 103.536 804.56 103.296 804.576 103.04C804.608 102.288 804.72 101.568 804.912 100.88C805.12 100.192 805.424 99.576 805.824 99.032C806.24 98.488 806.768 98.064 807.408 97.76C808.048 97.44 808.808 97.28 809.688 97.28C810.632 97.28 811.416 97.448 812.04 97.784C812.664 98.12 813.176 98.536 813.576 99.032V93.512C813.576 93.352 813.624 93.224 813.72 93.128C813.832 93.016 813.968 92.96 814.128 92.96H815.28C815.44 92.96 815.568 93.016 815.664 93.128C815.776 93.224 815.832 93.352 815.832 93.512V109.448C815.832 109.608 815.776 109.744 815.664 109.856C815.568 109.952 815.44 110 815.28 110H814.2C814.024 110 813.888 109.952 813.792 109.856C813.696 109.744 813.648 109.608 813.648 109.448V108.44C813.248 108.952 812.728 109.384 812.088 109.736C811.448 110.072 810.648 110.24 809.688 110.24ZM810.192 108.296C810.992 108.296 811.632 108.112 812.112 107.744C812.592 107.376 812.952 106.912 813.192 106.352C813.432 105.776 813.56 105.192 813.576 104.6C813.592 104.344 813.6 104.04 813.6 103.688C813.6 103.32 813.592 103.008 813.576 102.752C813.56 102.192 813.424 101.64 813.168 101.096C812.928 100.552 812.56 100.104 812.064 99.752C811.584 99.4 810.96 99.224 810.192 99.224C809.376 99.224 808.728 99.408 808.248 99.776C807.768 100.128 807.424 100.6 807.216 101.192C807.008 101.768 806.888 102.392 806.856 103.064C806.84 103.528 806.84 103.992 806.856 104.456C806.888 105.128 807.008 105.76 807.216 106.352C807.424 106.928 807.768 107.4 808.248 107.768C808.728 108.12 809.376 108.296 810.192 108.296ZM823.721 110.24C822.825 110.24 822.057 110.128 821.417 109.904C820.777 109.68 820.257 109.408 819.857 109.088C819.457 108.768 819.153 108.448 818.945 108.128C818.753 107.808 818.649 107.552 818.633 107.36C818.617 107.184 818.673 107.048 818.801 106.952C818.929 106.856 819.057 106.808 819.185 106.808H820.241C820.337 106.808 820.409 106.824 820.457 106.856C820.521 106.872 820.601 106.936 820.697 107.048C820.905 107.272 821.137 107.496 821.393 107.72C821.649 107.944 821.961 108.128 822.329 108.272C822.713 108.416 823.185 108.488 823.745 108.488C824.561 108.488 825.233 108.336 825.761 108.032C826.289 107.712 826.553 107.248 826.553 106.64C826.553 106.24 826.441 105.92 826.217 105.68C826.009 105.44 825.625 105.224 825.065 105.032C824.521 104.84 823.769 104.64 822.809 104.432C821.849 104.208 821.089 103.936 820.529 103.616C819.969 103.28 819.569 102.888 819.329 102.44C819.089 101.976 818.969 101.456 818.969 100.88C818.969 100.288 819.145 99.72 819.497 99.176C819.849 98.616 820.361 98.16 821.033 97.808C821.721 97.456 822.577 97.28 823.601 97.28C824.433 97.28 825.145 97.384 825.737 97.592C826.329 97.8 826.817 98.064 827.201 98.384C827.585 98.688 827.873 98.992 828.065 99.296C828.257 99.6 828.361 99.856 828.377 100.064C828.393 100.224 828.345 100.36 828.233 100.472C828.121 100.568 827.993 100.616 827.849 100.616H826.841C826.729 100.616 826.633 100.592 826.553 100.544C826.489 100.496 826.425 100.44 826.361 100.376C826.201 100.168 826.009 99.96 825.785 99.752C825.577 99.544 825.297 99.376 824.945 99.248C824.609 99.104 824.161 99.032 823.601 99.032C822.801 99.032 822.201 99.2 821.801 99.536C821.401 99.872 821.201 100.296 821.201 100.808C821.201 101.112 821.289 101.384 821.465 101.624C821.641 101.864 821.977 102.08 822.473 102.272C822.969 102.464 823.705 102.672 824.681 102.896C825.737 103.104 826.569 103.384 827.177 103.736C827.785 104.088 828.217 104.496 828.473 104.96C828.729 105.424 828.857 105.96 828.857 106.568C828.857 107.24 828.657 107.856 828.257 108.416C827.873 108.976 827.297 109.424 826.529 109.76C825.777 110.08 824.841 110.24 823.721 110.24Z" fill="#333333"/>
<path d="M1036.79 60C1036.4 60 1036.08 59.872 1035.83 59.616C1035.61 59.3173 1035.51 58.976 1035.51 58.592C1035.51 58.464 1035.55 58.272 1035.63 58.016L1051.57 20.768H1030.58C1030.15 20.768 1029.79 20.64 1029.49 20.384C1029.23 20.0853 1029.11 19.7227 1029.11 19.296V16.736C1029.11 16.2667 1029.23 15.904 1029.49 15.648C1029.79 15.3493 1030.15 15.2 1030.58 15.2H1056.82C1057.29 15.2 1057.65 15.3493 1057.91 15.648C1058.2 15.904 1058.35 16.2667 1058.35 16.736V19.104C1058.35 19.6587 1058.31 20.1067 1058.23 20.448C1058.14 20.7893 1058.01 21.1733 1057.84 21.6L1042.03 58.4C1041.91 58.7413 1041.69 59.104 1041.39 59.488C1041.14 59.8293 1040.75 60 1040.24 60H1036.79ZM1080.35 60.64C1077.41 60.64 1074.91 60.192 1072.86 59.296C1070.86 58.3573 1069.21 57.0773 1067.93 55.456C1066.65 53.8347 1065.72 51.9787 1065.12 49.888C1064.56 47.7973 1064.24 45.5787 1064.16 43.232C1064.12 42.08 1064.07 40.864 1064.03 39.584C1064.03 38.304 1064.03 37.024 1064.03 35.744C1064.07 34.4213 1064.12 33.1627 1064.16 31.968C1064.2 29.6213 1064.52 27.4027 1065.12 25.312C1065.76 23.1787 1066.7 21.3227 1067.93 19.744C1069.21 18.1227 1070.88 16.864 1072.93 15.968C1074.97 15.0293 1077.45 14.56 1080.35 14.56C1083.29 14.56 1085.77 15.0293 1087.77 15.968C1089.82 16.864 1091.49 18.1227 1092.77 19.744C1094.05 21.3227 1094.99 23.1787 1095.58 25.312C1096.22 27.4027 1096.56 29.6213 1096.61 31.968C1096.65 33.1627 1096.67 34.4213 1096.67 35.744C1096.71 37.024 1096.71 38.304 1096.67 39.584C1096.67 40.864 1096.65 42.08 1096.61 43.232C1096.56 45.5787 1096.22 47.7973 1095.58 49.888C1094.99 51.9787 1094.05 53.8347 1092.77 55.456C1091.53 57.0773 1089.89 58.3573 1087.84 59.296C1085.83 60.192 1083.34 60.64 1080.35 60.64ZM1080.35 55.2C1083.68 55.2 1086.13 54.112 1087.71 51.936C1089.33 49.7173 1090.16 46.7093 1090.21 42.912C1090.29 41.6747 1090.33 40.48 1090.33 39.328C1090.33 38.1333 1090.33 36.96 1090.33 35.808C1090.33 34.6133 1090.29 33.44 1090.21 32.288C1090.16 28.576 1089.33 25.6107 1087.71 23.392C1086.13 21.1307 1083.68 20 1080.35 20C1077.07 20 1074.61 21.1307 1072.99 23.392C1071.41 25.6107 1070.58 28.576 1070.49 32.288C1070.49 33.44 1070.47 34.6133 1070.43 35.808C1070.43 36.96 1070.43 38.1333 1070.43 39.328C1070.47 40.48 1070.49 41.6747 1070.49 42.912C1070.58 46.7093 1071.43 49.7173 1073.05 51.936C1074.68 54.112 1077.11 55.2 1080.35 55.2ZM1120.98 60.64C1118.03 60.64 1115.54 60.192 1113.49 59.296C1111.48 58.3573 1109.84 57.0773 1108.56 55.456C1107.28 53.8347 1106.34 51.9787 1105.74 49.888C1105.19 47.7973 1104.87 45.5787 1104.78 43.232C1104.74 42.08 1104.7 40.864 1104.66 39.584C1104.66 38.304 1104.66 37.024 1104.66 35.744C1104.7 34.4213 1104.74 33.1627 1104.78 31.968C1104.83 29.6213 1105.15 27.4027 1105.74 25.312C1106.38 23.1787 1107.32 21.3227 1108.56 19.744C1109.84 18.1227 1111.5 16.864 1113.55 15.968C1115.6 15.0293 1118.07 14.56 1120.98 14.56C1123.92 14.56 1126.39 15.0293 1128.4 15.968C1130.45 16.864 1132.11 18.1227 1133.39 19.744C1134.67 21.3227 1135.61 23.1787 1136.21 25.312C1136.85 27.4027 1137.19 29.6213 1137.23 31.968C1137.27 33.1627 1137.3 34.4213 1137.3 35.744C1137.34 37.024 1137.34 38.304 1137.3 39.584C1137.3 40.864 1137.27 42.08 1137.23 43.232C1137.19 45.5787 1136.85 47.7973 1136.21 49.888C1135.61 51.9787 1134.67 53.8347 1133.39 55.456C1132.15 57.0773 1130.51 58.3573 1128.46 59.296C1126.46 60.192 1123.96 60.64 1120.98 60.64ZM1120.98 55.2C1124.3 55.2 1126.76 54.112 1128.34 51.936C1129.96 49.7173 1130.79 46.7093 1130.83 42.912C1130.92 41.6747 1130.96 40.48 1130.96 39.328C1130.96 38.1333 1130.96 36.96 1130.96 35.808C1130.96 34.6133 1130.92 33.44 1130.83 32.288C1130.79 28.576 1129.96 25.6107 1128.34 23.392C1126.76 21.1307 1124.3 20 1120.98 20C1117.69 20 1115.24 21.1307 1113.62 23.392C1112.04 25.6107 1111.2 28.576 1111.12 32.288C1111.12 33.44 1111.1 34.6133 1111.06 35.808C1111.06 36.96 1111.06 38.1333 1111.06 39.328C1111.1 40.48 1111.12 41.6747 1111.12 42.912C1111.2 46.7093 1112.06 49.7173 1113.68 51.936C1115.3 54.112 1117.73 55.2 1120.98 55.2ZM1160.06 57.888C1159.64 57.888 1159.28 57.76 1158.98 57.504C1158.72 57.2053 1158.59 56.8427 1158.59 56.416V43.104H1145.47C1145.05 43.104 1144.68 42.976 1144.38 42.72C1144.13 42.4213 1144 42.0587 1144 41.632V39.584C1144 39.1573 1144.13 38.816 1144.38 38.56C1144.68 38.2613 1145.05 38.112 1145.47 38.112H1158.59V25.184C1158.59 24.7573 1158.72 24.416 1158.98 24.16C1159.28 23.8613 1159.64 23.712 1160.06 23.712H1162.3C1162.73 23.712 1163.07 23.8613 1163.33 24.16C1163.63 24.416 1163.78 24.7573 1163.78 25.184V38.112H1176.96C1177.39 38.112 1177.73 38.2613 1177.98 38.56C1178.28 38.816 1178.43 39.1573 1178.43 39.584V41.632C1178.43 42.0587 1178.28 42.4213 1177.98 42.72C1177.73 42.976 1177.39 43.104 1176.96 43.104H1163.78V56.416C1163.78 56.8427 1163.63 57.2053 1163.33 57.504C1163.07 57.76 1162.73 57.888 1162.3 57.888H1160.06Z" fill="#333333"/>
<path d="M1029.39 110C1029.21 110 1029.08 109.952 1028.98 109.856C1028.89 109.744 1028.84 109.608 1028.84 109.448V93.776C1028.84 93.6 1028.89 93.464 1028.98 93.368C1029.08 93.256 1029.21 93.2 1029.39 93.2H1030.61C1030.79 93.2 1030.93 93.256 1031.02 93.368C1031.13 93.464 1031.19 93.6 1031.19 93.776V100.4H1039.45V93.776C1039.45 93.6 1039.49 93.464 1039.59 93.368C1039.7 93.256 1039.84 93.2 1040 93.2H1041.22C1041.4 93.2 1041.53 93.256 1041.63 93.368C1041.74 93.464 1041.8 93.6 1041.8 93.776V109.448C1041.8 109.608 1041.74 109.744 1041.63 109.856C1041.53 109.952 1041.4 110 1041.22 110H1040C1039.84 110 1039.7 109.952 1039.59 109.856C1039.49 109.744 1039.45 109.608 1039.45 109.448V102.56H1031.19V109.448C1031.19 109.608 1031.13 109.744 1031.02 109.856C1030.93 109.952 1030.79 110 1030.61 110H1029.39ZM1049.12 110.24C1048.32 110.24 1047.59 110.08 1046.93 109.76C1046.28 109.44 1045.75 109.008 1045.35 108.464C1044.95 107.92 1044.75 107.304 1044.75 106.616C1044.75 105.512 1045.2 104.632 1046.09 103.976C1046.99 103.32 1048.16 102.888 1049.6 102.68L1053.17 102.176V101.48C1053.17 100.712 1052.95 100.112 1052.5 99.68C1052.07 99.248 1051.36 99.032 1050.36 99.032C1049.64 99.032 1049.06 99.176 1048.61 99.464C1048.18 99.752 1047.88 100.12 1047.7 100.568C1047.6 100.808 1047.44 100.928 1047.2 100.928H1046.12C1045.94 100.928 1045.8 100.88 1045.71 100.784C1045.63 100.672 1045.59 100.544 1045.59 100.4C1045.59 100.16 1045.68 99.864 1045.85 99.512C1046.04 99.16 1046.33 98.816 1046.72 98.48C1047.1 98.144 1047.59 97.864 1048.18 97.64C1048.79 97.4 1049.52 97.28 1050.39 97.28C1051.35 97.28 1052.16 97.408 1052.81 97.664C1053.47 97.904 1053.98 98.232 1054.35 98.648C1054.73 99.064 1055 99.536 1055.16 100.064C1055.34 100.592 1055.43 101.128 1055.43 101.672V109.448C1055.43 109.608 1055.37 109.744 1055.26 109.856C1055.16 109.952 1055.04 110 1054.88 110H1053.77C1053.6 110 1053.46 109.952 1053.36 109.856C1053.27 109.744 1053.22 109.608 1053.22 109.448V108.416C1053.01 108.704 1052.73 108.992 1052.38 109.28C1052.03 109.552 1051.59 109.784 1051.06 109.976C1050.53 110.152 1049.88 110.24 1049.12 110.24ZM1049.62 108.44C1050.28 108.44 1050.88 108.304 1051.42 108.032C1051.96 107.744 1052.39 107.304 1052.69 106.712C1053.01 106.12 1053.17 105.376 1053.17 104.48V103.808L1050.39 104.216C1049.25 104.376 1048.4 104.648 1047.82 105.032C1047.24 105.4 1046.96 105.872 1046.96 106.448C1046.96 106.896 1047.08 107.272 1047.34 107.576C1047.61 107.864 1047.95 108.08 1048.35 108.224C1048.76 108.368 1049.19 108.44 1049.62 108.44ZM1059.45 114.56C1059.29 114.56 1059.16 114.504 1059.05 114.392C1058.95 114.296 1058.9 114.168 1058.9 114.008V98.072C1058.9 97.912 1058.95 97.784 1059.05 97.688C1059.16 97.576 1059.29 97.52 1059.45 97.52H1060.56C1060.72 97.52 1060.85 97.576 1060.94 97.688C1061.05 97.784 1061.11 97.912 1061.11 98.072V99.128C1061.49 98.6 1062.01 98.16 1062.65 97.808C1063.29 97.456 1064.09 97.28 1065.05 97.28C1065.94 97.28 1066.7 97.432 1067.33 97.736C1067.97 98.04 1068.49 98.456 1068.89 98.984C1069.3 99.512 1069.61 100.112 1069.82 100.784C1070.03 101.456 1070.14 102.176 1070.16 102.944C1070.17 103.2 1070.18 103.472 1070.18 103.76C1070.18 104.048 1070.17 104.32 1070.16 104.576C1070.14 105.328 1070.03 106.048 1069.82 106.736C1069.61 107.408 1069.3 108.008 1068.89 108.536C1068.49 109.048 1067.97 109.464 1067.33 109.784C1066.7 110.088 1065.94 110.24 1065.05 110.24C1064.12 110.24 1063.33 110.072 1062.69 109.736C1062.07 109.384 1061.56 108.952 1061.16 108.44V114.008C1061.16 114.168 1061.11 114.296 1061.01 114.392C1060.92 114.504 1060.78 114.56 1060.61 114.56H1059.45ZM1064.54 108.296C1065.37 108.296 1066.02 108.12 1066.49 107.768C1066.97 107.4 1067.31 106.928 1067.52 106.352C1067.73 105.76 1067.85 105.128 1067.88 104.456C1067.89 103.992 1067.89 103.528 1067.88 103.064C1067.85 102.392 1067.73 101.768 1067.52 101.192C1067.31 100.6 1066.97 100.128 1066.49 99.776C1066.02 99.408 1065.37 99.224 1064.54 99.224C1063.76 99.224 1063.12 99.408 1062.62 99.776C1062.14 100.144 1061.78 100.616 1061.54 101.192C1061.32 101.752 1061.19 102.328 1061.16 102.92C1061.14 103.176 1061.13 103.48 1061.13 103.832C1061.13 104.184 1061.14 104.496 1061.16 104.768C1061.17 105.328 1061.3 105.88 1061.54 106.424C1061.8 106.968 1062.17 107.416 1062.67 107.768C1063.17 108.12 1063.79 108.296 1064.54 108.296ZM1073.75 114.56C1073.59 114.56 1073.45 114.504 1073.34 114.392C1073.25 114.296 1073.2 114.168 1073.2 114.008V98.072C1073.2 97.912 1073.25 97.784 1073.34 97.688C1073.45 97.576 1073.59 97.52 1073.75 97.52H1074.85C1075.01 97.52 1075.14 97.576 1075.24 97.688C1075.35 97.784 1075.41 97.912 1075.41 98.072V99.128C1075.79 98.6 1076.3 98.16 1076.94 97.808C1077.58 97.456 1078.38 97.28 1079.34 97.28C1080.24 97.28 1081 97.432 1081.62 97.736C1082.26 98.04 1082.78 98.456 1083.18 98.984C1083.6 99.512 1083.91 100.112 1084.12 100.784C1084.33 101.456 1084.44 102.176 1084.45 102.944C1084.47 103.2 1084.48 103.472 1084.48 103.76C1084.48 104.048 1084.47 104.32 1084.45 104.576C1084.44 105.328 1084.33 106.048 1084.12 106.736C1083.91 107.408 1083.6 108.008 1083.18 108.536C1082.78 109.048 1082.26 109.464 1081.62 109.784C1081 110.088 1080.24 110.24 1079.34 110.24C1078.41 110.24 1077.63 110.072 1076.99 109.736C1076.37 109.384 1075.85 108.952 1075.45 108.44V114.008C1075.45 114.168 1075.41 114.296 1075.31 114.392C1075.21 114.504 1075.08 114.56 1074.9 114.56H1073.75ZM1078.84 108.296C1079.67 108.296 1080.32 108.12 1080.78 107.768C1081.26 107.4 1081.61 106.928 1081.81 106.352C1082.02 105.76 1082.14 105.128 1082.17 104.456C1082.19 103.992 1082.19 103.528 1082.17 103.064C1082.14 102.392 1082.02 101.768 1081.81 101.192C1081.61 100.6 1081.26 100.128 1080.78 99.776C1080.32 99.408 1079.67 99.224 1078.84 99.224C1078.05 99.224 1077.41 99.408 1076.92 99.776C1076.44 100.144 1076.08 100.616 1075.84 101.192C1075.61 101.752 1075.49 102.328 1075.45 102.92C1075.44 103.176 1075.43 103.48 1075.43 103.832C1075.43 104.184 1075.44 104.496 1075.45 104.768C1075.47 105.328 1075.6 105.88 1075.84 106.424C1076.09 106.968 1076.47 107.416 1076.97 107.768C1077.46 108.12 1078.09 108.296 1078.84 108.296ZM1089.19 114.56C1089.06 114.56 1088.95 114.512 1088.85 114.416C1088.75 114.32 1088.71 114.208 1088.71 114.08C1088.71 114.016 1088.71 113.952 1088.73 113.888C1088.75 113.824 1088.78 113.744 1088.83 113.648L1090.67 109.256L1086.09 98.432C1086.01 98.24 1085.97 98.104 1085.97 98.024C1085.97 97.88 1086.02 97.76 1086.11 97.664C1086.21 97.568 1086.33 97.52 1086.47 97.52H1087.65C1087.81 97.52 1087.94 97.56 1088.03 97.64C1088.13 97.72 1088.19 97.816 1088.23 97.928L1091.87 106.664L1095.62 97.928C1095.67 97.816 1095.73 97.72 1095.81 97.64C1095.91 97.56 1096.04 97.52 1096.22 97.52H1097.35C1097.49 97.52 1097.61 97.568 1097.71 97.664C1097.8 97.76 1097.85 97.872 1097.85 98C1097.85 98.08 1097.81 98.224 1097.73 98.432L1090.91 114.152C1090.87 114.264 1090.79 114.36 1090.7 114.44C1090.62 114.52 1090.49 114.56 1090.31 114.56H1089.19ZM1111.83 110.24C1110.36 110.24 1109.14 109.968 1108.16 109.424C1107.2 108.88 1106.47 108.12 1105.98 107.144C1105.48 106.168 1105.21 105.032 1105.16 103.736C1105.14 103.08 1105.14 102.376 1105.14 101.624C1105.14 100.872 1105.14 100.152 1105.16 99.464C1105.21 98.168 1105.48 97.032 1105.98 96.056C1106.47 95.08 1107.2 94.32 1108.16 93.776C1109.14 93.232 1110.36 92.96 1111.83 92.96C1112.94 92.96 1113.9 93.112 1114.74 93.416C1115.57 93.72 1116.26 94.128 1116.8 94.64C1117.36 95.152 1117.78 95.728 1118.07 96.368C1118.36 96.992 1118.52 97.64 1118.55 98.312C1118.57 98.456 1118.52 98.576 1118.41 98.672C1118.31 98.768 1118.19 98.816 1118.05 98.816H1116.73C1116.58 98.816 1116.46 98.776 1116.34 98.696C1116.25 98.616 1116.18 98.472 1116.13 98.264C1115.86 97.016 1115.34 96.16 1114.59 95.696C1113.86 95.232 1112.93 95 1111.81 95C1110.53 95 1109.51 95.368 1108.76 96.104C1108.01 96.824 1107.6 97.984 1107.54 99.584C1107.49 100.896 1107.49 102.24 1107.54 103.616C1107.6 105.216 1108.01 106.384 1108.76 107.12C1109.51 107.84 1110.53 108.2 1111.81 108.2C1112.93 108.2 1113.86 107.968 1114.59 107.504C1115.34 107.04 1115.86 106.184 1116.13 104.936C1116.18 104.728 1116.25 104.584 1116.34 104.504C1116.46 104.424 1116.58 104.384 1116.73 104.384H1118.05C1118.19 104.384 1118.31 104.432 1118.41 104.528C1118.52 104.624 1118.57 104.744 1118.55 104.888C1118.52 105.56 1118.36 106.216 1118.07 106.856C1117.78 107.48 1117.36 108.048 1116.8 108.56C1116.26 109.072 1115.57 109.48 1114.74 109.784C1113.9 110.088 1112.94 110.24 1111.83 110.24ZM1122.03 110C1121.87 110 1121.74 109.952 1121.62 109.856C1121.53 109.744 1121.48 109.608 1121.48 109.448V93.512C1121.48 93.352 1121.53 93.224 1121.62 93.128C1121.74 93.016 1121.87 92.96 1122.03 92.96H1123.16C1123.34 92.96 1123.47 93.016 1123.57 93.128C1123.66 93.224 1123.71 93.352 1123.71 93.512V109.448C1123.71 109.608 1123.66 109.744 1123.57 109.856C1123.47 109.952 1123.34 110 1123.16 110H1122.03ZM1128.08 110C1127.92 110 1127.78 109.952 1127.67 109.856C1127.57 109.744 1127.53 109.608 1127.53 109.448V98.072C1127.53 97.912 1127.57 97.784 1127.67 97.688C1127.78 97.576 1127.92 97.52 1128.08 97.52H1129.23C1129.39 97.52 1129.52 97.576 1129.61 97.688C1129.71 97.784 1129.76 97.912 1129.76 98.072V109.448C1129.76 109.608 1129.71 109.744 1129.61 109.856C1129.52 109.952 1129.39 110 1129.23 110H1128.08ZM1127.89 95.192C1127.73 95.192 1127.59 95.144 1127.48 95.048C1127.38 94.936 1127.33 94.8 1127.33 94.64V93.344C1127.33 93.184 1127.38 93.056 1127.48 92.96C1127.59 92.848 1127.73 92.792 1127.89 92.792H1129.4C1129.56 92.792 1129.69 92.848 1129.78 92.96C1129.89 93.056 1129.95 93.184 1129.95 93.344V94.64C1129.95 94.8 1129.89 94.936 1129.78 95.048C1129.69 95.144 1129.56 95.192 1129.4 95.192H1127.89ZM1138.35 110.24C1136.71 110.24 1135.39 109.736 1134.42 108.728C1133.44 107.704 1132.91 106.312 1132.81 104.552C1132.79 104.344 1132.79 104.08 1132.79 103.76C1132.79 103.424 1132.79 103.152 1132.81 102.944C1132.87 101.808 1133.14 100.816 1133.6 99.968C1134.07 99.104 1134.7 98.44 1135.5 97.976C1136.31 97.512 1137.27 97.28 1138.35 97.28C1139.57 97.28 1140.59 97.536 1141.4 98.048C1142.23 98.56 1142.87 99.288 1143.3 100.232C1143.73 101.176 1143.95 102.28 1143.95 103.544V103.952C1143.95 104.128 1143.89 104.264 1143.78 104.36C1143.68 104.456 1143.55 104.504 1143.39 104.504H1135.09C1135.09 104.52 1135.09 104.552 1135.09 104.6C1135.09 104.648 1135.09 104.688 1135.09 104.72C1135.12 105.376 1135.27 105.992 1135.52 106.568C1135.78 107.128 1136.15 107.584 1136.63 107.936C1137.11 108.288 1137.68 108.464 1138.35 108.464C1138.93 108.464 1139.41 108.376 1139.79 108.2C1140.18 108.024 1140.49 107.832 1140.73 107.624C1140.97 107.4 1141.13 107.232 1141.21 107.12C1141.35 106.912 1141.47 106.792 1141.55 106.76C1141.63 106.712 1141.75 106.688 1141.93 106.688H1143.08C1143.24 106.688 1143.37 106.736 1143.47 106.832C1143.58 106.912 1143.63 107.032 1143.61 107.192C1143.59 107.432 1143.47 107.728 1143.23 108.08C1142.99 108.416 1142.64 108.752 1142.19 109.088C1141.75 109.424 1141.2 109.704 1140.56 109.928C1139.92 110.136 1139.19 110.24 1138.35 110.24ZM1135.09 102.848H1141.67V102.776C1141.67 102.056 1141.53 101.416 1141.26 100.856C1141 100.296 1140.63 99.856 1140.13 99.536C1139.63 99.2 1139.04 99.032 1138.35 99.032C1137.67 99.032 1137.07 99.2 1136.58 99.536C1136.1 99.856 1135.73 100.296 1135.47 100.856C1135.22 101.416 1135.09 102.056 1135.09 102.776V102.848ZM1147.37 110C1147.21 110 1147.07 109.952 1146.96 109.856C1146.86 109.744 1146.82 109.608 1146.82 109.448V98.072C1146.82 97.912 1146.86 97.784 1146.96 97.688C1147.07 97.576 1147.21 97.52 1147.37 97.52H1148.5C1148.66 97.52 1148.78 97.576 1148.88 97.688C1148.99 97.784 1149.05 97.912 1149.05 98.072V99.128C1149.46 98.584 1149.98 98.144 1150.61 97.808C1151.25 97.456 1152.06 97.28 1153.06 97.28C1154.1 97.28 1154.98 97.512 1155.7 97.976C1156.43 98.424 1156.98 99.056 1157.35 99.872C1157.72 100.672 1157.9 101.608 1157.9 102.68V109.448C1157.9 109.608 1157.86 109.744 1157.76 109.856C1157.66 109.952 1157.54 110 1157.38 110H1156.18C1156.02 110 1155.88 109.952 1155.77 109.856C1155.67 109.744 1155.62 109.608 1155.62 109.448V102.8C1155.62 101.68 1155.35 100.808 1154.81 100.184C1154.26 99.544 1153.46 99.224 1152.41 99.224C1151.42 99.224 1150.62 99.544 1150.01 100.184C1149.42 100.808 1149.12 101.68 1149.12 102.8V109.448C1149.12 109.608 1149.06 109.744 1148.95 109.856C1148.86 109.952 1148.73 110 1148.57 110H1147.37ZM1166.08 110C1165.18 110 1164.45 109.832 1163.89 109.496C1163.33 109.144 1162.93 108.656 1162.67 108.032C1162.41 107.392 1162.29 106.64 1162.29 105.776V99.44H1160.41C1160.25 99.44 1160.12 99.392 1160.01 99.296C1159.91 99.184 1159.86 99.048 1159.86 98.888V98.072C1159.86 97.912 1159.91 97.784 1160.01 97.688C1160.12 97.576 1160.25 97.52 1160.41 97.52H1162.29V93.512C1162.29 93.352 1162.33 93.224 1162.43 93.128C1162.54 93.016 1162.68 92.96 1162.84 92.96H1163.97C1164.13 92.96 1164.25 93.016 1164.35 93.128C1164.46 93.224 1164.52 93.352 1164.52 93.512V97.52H1167.49C1167.65 97.52 1167.78 97.576 1167.88 97.688C1167.99 97.784 1168.05 97.912 1168.05 98.072V98.888C1168.05 99.048 1167.99 99.184 1167.88 99.296C1167.78 99.392 1167.65 99.44 1167.49 99.44H1164.52V105.608C1164.52 106.36 1164.65 106.952 1164.9 107.384C1165.16 107.816 1165.61 108.032 1166.27 108.032H1167.73C1167.89 108.032 1168.02 108.088 1168.12 108.2C1168.23 108.296 1168.29 108.424 1168.29 108.584V109.448C1168.29 109.608 1168.23 109.744 1168.12 109.856C1168.02 109.952 1167.89 110 1167.73 110H1166.08ZM1174.9 110.24C1174 110.24 1173.24 110.128 1172.6 109.904C1171.96 109.68 1171.44 109.408 1171.04 109.088C1170.64 108.768 1170.33 108.448 1170.12 108.128C1169.93 107.808 1169.83 107.552 1169.81 107.36C1169.8 107.184 1169.85 107.048 1169.98 106.952C1170.11 106.856 1170.24 106.808 1170.36 106.808H1171.42C1171.52 106.808 1171.59 106.824 1171.64 106.856C1171.7 106.872 1171.78 106.936 1171.88 107.048C1172.08 107.272 1172.32 107.496 1172.57 107.72C1172.83 107.944 1173.14 108.128 1173.51 108.272C1173.89 108.416 1174.36 108.488 1174.92 108.488C1175.74 108.488 1176.41 108.336 1176.94 108.032C1177.47 107.712 1177.73 107.248 1177.73 106.64C1177.73 106.24 1177.62 105.92 1177.4 105.68C1177.19 105.44 1176.8 105.224 1176.24 105.032C1175.7 104.84 1174.95 104.64 1173.99 104.432C1173.03 104.208 1172.27 103.936 1171.71 103.616C1171.15 103.28 1170.75 102.888 1170.51 102.44C1170.27 101.976 1170.15 101.456 1170.15 100.88C1170.15 100.288 1170.32 99.72 1170.68 99.176C1171.03 98.616 1171.54 98.16 1172.21 97.808C1172.9 97.456 1173.76 97.28 1174.78 97.28C1175.61 97.28 1176.32 97.384 1176.92 97.592C1177.51 97.8 1178 98.064 1178.38 98.384C1178.76 98.688 1179.05 98.992 1179.24 99.296C1179.44 99.6 1179.54 99.856 1179.56 100.064C1179.57 100.224 1179.52 100.36 1179.41 100.472C1179.3 100.568 1179.17 100.616 1179.03 100.616H1178.02C1177.91 100.616 1177.81 100.592 1177.73 100.544C1177.67 100.496 1177.6 100.44 1177.54 100.376C1177.38 100.168 1177.19 99.96 1176.96 99.752C1176.76 99.544 1176.48 99.376 1176.12 99.248C1175.79 99.104 1175.34 99.032 1174.78 99.032C1173.98 99.032 1173.38 99.2 1172.98 99.536C1172.58 99.872 1172.38 100.296 1172.38 100.808C1172.38 101.112 1172.47 101.384 1172.64 101.624C1172.82 101.864 1173.16 102.08 1173.65 102.272C1174.15 102.464 1174.88 102.672 1175.86 102.896C1176.92 103.104 1177.75 103.384 1178.36 103.736C1178.96 104.088 1179.4 104.496 1179.65 104.96C1179.91 105.424 1180.04 105.96 1180.04 106.568C1180.04 107.24 1179.84 107.856 1179.44 108.416C1179.05 108.976 1178.48 109.424 1177.71 109.76C1176.96 110.08 1176.02 110.24 1174.9 110.24Z" fill="#333333"/>
</svg>
