<svg width="1376" height="32" viewBox="0 0 1376 32" fill="none" xmlns="http://www.w3.org/2000/svg">
<g clip-path="url(#clip0_15_494)">
<path d="M356.177 0.25H332.323C331.243 0.25 330.207 0.67909 329.443 1.44287C328.679 2.20666 328.25 3.24257 328.25 4.32273V28.1773C328.25 29.2574 328.679 30.2933 329.443 31.0571C330.207 31.8209 331.243 32.25 332.323 32.25H344.008V18.9354H341.345V13.6096H343.986V11.2027C343.986 9.0244 345.023 5.6212 349.59 5.6212L353.704 5.63771V10.2007H350.716C350.231 10.2007 349.539 10.4426 349.539 11.4801V13.6099H353.772L353.286 18.9357H349.334V32.25H356.177C356.712 32.25 357.242 32.1447 357.736 31.94C358.23 31.7353 358.679 31.4353 359.057 31.0571C359.435 30.6789 359.735 30.23 359.94 29.7358C360.145 29.2417 360.25 28.7121 360.25 28.1773V4.32273C360.25 3.78789 360.145 3.25829 359.94 2.76416C359.735 2.27004 359.435 1.82106 359.057 1.44287C358.679 1.06469 358.23 0.764691 357.736 0.560018C357.242 0.355344 356.712 0.25 356.177 0.25Z" fill="white"/>
</g>
<g clip-path="url(#clip1_15_494)">
<path d="M528.8 0H503.2C501.44 0 500 1.44 500 3.2V28.8C500 30.56 501.44 32 503.2 32H528.8C530.56 32 532 30.56 532 28.8V3.2C532 1.44 530.56 0 528.8 0ZM509.6 27.2H504.8V12.8H509.6V27.2ZM507.2 10.08C505.6 10.08 504.32 8.8 504.32 7.2C504.32 5.6 505.6 4.32 507.2 4.32C508.8 4.32 510.08 5.6 510.08 7.2C510.08 8.8 508.8 10.08 507.2 10.08ZM527.2 27.2H522.4V18.72C522.4 17.4401 521.28 16.32 520 16.32C518.72 16.32 517.6 17.4401 517.6 18.72V27.2H512.8V12.8H517.6V14.72C518.4 13.44 520.16 12.48 521.6 12.48C524.64 12.48 527.2 15.04 527.2 18.08V27.2Z" fill="white"/>
</g>
<g clip-path="url(#clip2_15_494)">
<path d="M688.484 19.9293C688.484 17.4653 687.312 15.644 684.891 14.9613C686.657 14.12 687.579 12.8453 687.579 10.8627C687.579 6.95333 684.656 6 681.284 6H672V25.628H681.544C685.123 25.628 688.484 23.9173 688.484 19.9293ZM676.328 9.35067H680.389C681.951 9.35067 683.356 9.788 683.356 11.5933C683.356 13.26 682.263 13.9307 680.716 13.9307H676.328V9.35067ZM676.327 22.2947V16.8893H681.044C682.949 16.8893 684.155 17.6813 684.155 19.692C684.155 21.6747 682.716 22.2947 680.955 22.2947H676.327Z" fill="white"/>
<path d="M697.061 26.0001C700.467 26.0001 702.672 24.4708 703.733 21.2201H700.277C699.905 22.4334 698.372 23.0748 697.183 23.0748C694.888 23.0748 693.683 21.7348 693.683 19.4574H703.967C704.292 14.9001 701.753 11.0161 697.06 11.0161C692.715 11.0161 689.765 14.2721 689.765 18.5374C689.765 22.9641 692.56 26.0001 697.061 26.0001ZM696.939 13.9654C698.905 13.9654 699.895 15.1174 700.06 17.0014H693.688C693.817 15.1334 695.061 13.9654 696.939 13.9654Z" fill="white"/>
<path d="M692.889 7.03076H700.873V8.9641H692.889V7.03076Z" fill="white"/>
</g>
<path d="M872.768 8.0641C871.808 8.4801 870.816 8.7681 869.76 8.8961C870.848 8.2561 871.68 7.2321 872.064 5.9841C871.04 6.5921 869.92 7.0081 868.736 7.2641C867.776 6.2401 866.4 5.6001 864.896 5.6001C861.984 5.6001 859.648 7.9681 859.648 10.8481C859.648 11.2641 859.68 11.6481 859.776 12.0321C855.424 11.8401 851.584 9.7281 848.992 6.5601C847.136 9.8881 849.216 12.6401 850.592 13.5681C849.76 13.5681 848.928 13.3121 848.224 12.9281C848.224 15.5201 850.048 17.6641 852.416 18.1441C851.904 18.3041 850.752 18.4001 850.048 18.2401C850.72 20.3201 852.672 21.8561 854.944 21.8881C853.152 23.2961 850.528 24.4161 847.168 24.0641C849.504 25.5681 852.256 26.4321 855.232 26.4321C864.896 26.4321 870.144 18.4321 870.144 11.5201C870.144 11.2961 870.144 11.0721 870.112 10.8481C871.2 10.0481 872.096 9.1201 872.768 8.0641Z" fill="white"/>
<g clip-path="url(#clip3_15_494)">
<path d="M1032 0C1023.18 0 1016 7.178 1016 16C1016 24.822 1023.18 32 1032 32C1040.82 32 1048 24.822 1048 16C1048 7.178 1040.82 0 1032 0ZM1032 30C1024.28 30 1018 23.718 1018 16C1018 8.28 1024.28 2 1032 2C1039.72 2 1046 8.28 1046 16C1046 23.718 1039.72 30 1032 30Z" fill="white"/>
<path d="M1032 4C1031.16 4 1030.34 4.088 1029.55 4.252C1031 6.316 1032.33 8.464 1033.49 10.69C1035.69 9.664 1037.76 8.34 1039.66 6.76C1037.58 5.036 1034.91 4 1032 4Z" fill="white"/>
<path d="M1041.08 8.17188C1039.02 9.90587 1036.76 11.3439 1034.36 12.4679C1034.88 13.5639 1035.37 14.6739 1035.82 15.8019C1038.48 15.2559 1041.24 15.2059 1043.98 15.6599C1043.9 12.7999 1042.83 10.1919 1041.08 8.17188Z" fill="white"/>
<path d="M1027.54 4.86621C1023.94 6.31021 1021.21 9.44621 1020.32 13.2962C1024.2 13.4622 1028.05 12.8142 1031.62 11.4482C1030.42 9.16621 1029.06 6.96621 1027.54 4.86621Z" fill="white"/>
<path d="M1032.52 13.2578C1029.06 14.6078 1025.36 15.3438 1021.59 15.3438C1021.08 15.3438 1020.56 15.3118 1020.04 15.2838C1020.02 15.5218 1020 15.7578 1020 15.9998C1020 18.9458 1021.07 21.6418 1022.83 23.7298C1025.71 20.1518 1029.58 17.5878 1033.87 16.2998C1033.45 15.2718 1033 14.2598 1032.52 13.2578Z" fill="white"/>
<path d="M1036.56 17.6962C1037.51 20.3562 1038.26 23.0902 1038.81 25.8782C1041.51 24.0122 1043.4 21.0662 1043.87 17.6622C1041.42 17.2282 1038.94 17.2482 1036.56 17.6962Z" fill="white"/>
<path d="M1034.59 18.1602C1030.56 19.3382 1026.92 21.7582 1024.25 25.1522C1026.34 26.9262 1029.04 28.0002 1032 28.0002C1033.78 28.0002 1035.46 27.6042 1036.97 26.9102C1036.42 23.9222 1035.62 20.9982 1034.59 18.1602Z" fill="white"/>
</g>
<defs>
<clipPath id="clip0_15_494">
<rect width="32" height="32" fill="white" transform="translate(328)"/>
</clipPath>
<clipPath id="clip1_15_494">
<rect width="32" height="32" fill="white" transform="translate(500)"/>
</clipPath>
<clipPath id="clip2_15_494">
<rect width="32" height="32" fill="white" transform="translate(672)"/>
</clipPath>
<clipPath id="clip3_15_494">
<rect width="32" height="32" fill="white" transform="translate(1016)"/>
</clipPath>
</defs>
</svg>
