<svg width="1263" height="20" viewBox="0 0 1263 20" fill="none" xmlns="http://www.w3.org/2000/svg">
<circle cx="567" cy="10" r="6.5" stroke="#333333" stroke-width="7"/>
<circle cx="615" cy="10" r="6" fill="#333333"/>
<circle cx="659" cy="10" r="6" fill="#333333"/>
<path d="M1201.65 9.64645C1201.45 9.84171 1201.45 10.1583 1201.65 10.3536L1204.83 13.5355C1205.02 13.7308 1205.34 13.7308 1205.54 13.5355C1205.73 13.3403 1205.73 13.0237 1205.54 12.8284L1202.71 10L1205.54 7.17157C1205.73 6.97631 1205.73 6.65973 1205.54 6.46447C1205.34 6.26921 1205.02 6.26921 1204.83 6.46447L1201.65 9.64645ZM1226 9.5L1202 9.5L1202 10.5L1226 10.5L1226 9.5Z" fill="#333333"/>
<path d="M1262.35 10.3536C1262.55 10.1583 1262.55 9.84171 1262.35 9.64645L1259.17 6.46447C1258.98 6.2692 1258.66 6.2692 1258.46 6.46447C1258.27 6.65973 1258.27 6.97631 1258.46 7.17157L1261.29 10L1258.46 12.8284C1258.27 13.0237 1258.27 13.3403 1258.46 13.5355C1258.66 13.7308 1258.98 13.7308 1259.17 13.5355L1262.35 10.3536ZM1238 10.5H1262V9.5H1238V10.5Z" fill="#333333"/>
</svg>
