<svg width="791" height="20" viewBox="0 0 791 20" fill="none" xmlns="http://www.w3.org/2000/svg">
<circle cx="10" cy="10" r="6.5" stroke="#333333" stroke-width="7"/>
<circle cx="58" cy="10" r="6" fill="#333333"/>
<circle cx="102" cy="10" r="6" fill="#333333"/>
<circle cx="146" cy="10" r="6" fill="#333333"/>
<path d="M729.646 9.64645C729.451 9.84171 729.451 10.1583 729.646 10.3536L732.828 13.5355C733.024 13.7308 733.34 13.7308 733.536 13.5355C733.731 13.3403 733.731 13.0237 733.536 12.8284L730.707 10L733.536 7.17157C733.731 6.97631 733.731 6.65973 733.536 6.46447C733.34 6.26921 733.024 6.26921 732.828 6.46447L729.646 9.64645ZM754 9.5L730 9.5L730 10.5L754 10.5L754 9.5Z" fill="#333333"/>
<path d="M790.354 10.3536C790.549 10.1583 790.549 9.84171 790.354 9.64645L787.172 6.46447C786.976 6.2692 786.66 6.2692 786.464 6.46447C786.269 6.65973 786.269 6.97631 786.464 7.17157L789.293 10L786.464 12.8284C786.269 13.0237 786.269 13.3403 786.464 13.5355C786.66 13.7308 786.976 13.7308 787.172 13.5355L790.354 10.3536ZM766 10.5H790V9.5H766V10.5Z" fill="#333333"/>
</svg>
