<svg width="79" height="69" viewBox="0 0 79 69" fill="none" xmlns="http://www.w3.org/2000/svg">
<path d="M52.1445 34.5391H64.3516V44.3047C64.3516 49.6911 59.9723 54.0703 54.5859 54.0703H53.3653C51.3359 54.0703 49.7031 55.703 49.7031 57.7325V65.0566C49.7031 67.0859 51.3358 68.7188 53.3653 68.7188H54.5859C68.0747 68.7188 79 57.7934 79 44.3047V7.68359C79 3.64 75.7194 0.359375 71.6758 0.359375H52.1445C48.1009 0.359375 44.8203 3.64 44.8203 7.68359V27.2148C44.8203 31.2584 48.1009 34.5391 52.1445 34.5391Z" fill="#333333"/>
<path d="M8.19922 34.5391H20.4062V44.3047C20.4062 49.6911 16.027 54.0703 10.6406 54.0703H9.42C7.39062 54.0703 5.75781 55.703 5.75781 57.7325V65.0566C5.75781 67.0859 7.39047 68.7188 9.42 68.7188H10.6406C24.1294 68.7188 35.0547 57.7934 35.0547 44.3047V7.68359C35.0547 3.64 31.7741 0.359375 27.7305 0.359375H8.19922C4.15562 0.359375 0.875 3.64 0.875 7.68359V27.2148C0.875 31.2584 4.15562 34.5391 8.19922 34.5391Z" fill="#333333"/>
</svg>
