<svg width="17" height="20" viewBox="0 0 17 20" fill="none" xmlns="http://www.w3.org/2000/svg">
<path d="M16.484 13.9293C16.484 11.4653 15.312 9.644 12.8907 8.96133C14.6573 8.12 15.5787 6.84533 15.5787 4.86267C15.5787 0.953334 12.656 0 9.284 0H0V19.628H9.544C13.1227 19.628 16.484 17.9173 16.484 13.9293ZM4.328 3.35067H8.38933C9.95067 3.35067 11.356 3.788 11.356 5.59333C11.356 7.26 10.2627 7.93067 8.716 7.93067H4.328V3.35067ZM4.32667 16.2947V10.8893H9.044C10.9493 10.8893 12.1547 11.6813 12.1547 13.692C12.1547 15.6747 10.716 16.2947 8.95467 16.2947H4.32667Z" fill="white"/>
</svg>
